<svg id="svg" version="1.1" xmlns="http://www.w3.org/2000/svg" xmlns:xlink="http://www.w3.org/1999/xlink" width="400" height="85.84474885844749" viewBox="0, 0, 400,85.84474885844749"><g id="svgg"><path id="path0" d="M103.167 1.387 L 103.167 2.775 102.543 2.929 C 100.763 3.370,101.058 9.627,102.861 9.661 C 103.099 9.666,103.146 9.929,103.194 11.542 C 103.259 13.731,103.568 14.576,104.467 15.025 C 104.769 15.176,104.994 15.333,104.967 15.374 C 104.939 15.415,105.020 15.573,105.145 15.724 C 105.342 15.961,105.336 16.000,105.104 16.000 C 104.955 16.000,104.833 15.894,104.833 15.764 C 104.833 15.593,104.615 15.529,104.042 15.532 C 103.417 15.535,103.329 15.566,103.625 15.679 C 103.832 15.758,104.125 15.775,104.278 15.716 C 104.479 15.639,104.517 15.671,104.418 15.831 C 104.331 15.973,104.346 16.012,104.463 15.940 C 104.655 15.821,104.884 16.087,104.943 16.500 C 104.970 16.689,104.925 16.677,104.759 16.453 C 104.564 16.191,104.528 16.187,104.438 16.420 C 104.372 16.592,104.404 16.643,104.528 16.566 C 104.658 16.486,104.689 16.563,104.625 16.808 C 104.573 17.005,104.599 17.125,104.682 17.074 C 104.765 17.022,104.833 17.028,104.833 17.085 C 104.833 17.231,104.500 17.534,103.959 17.880 C 103.708 18.041,103.514 18.228,103.528 18.295 C 103.631 18.771,103.263 19.307,102.778 19.388 C 102.487 19.437,102.045 19.528,101.794 19.590 C 101.091 19.767,99.844 19.341,99.839 18.923 C 99.837 18.736,99.816 18.358,99.793 18.084 C 99.768 17.790,99.830 17.584,99.944 17.584 C 100.597 17.582,100.193 17.374,99.509 17.358 C 98.514 17.336,97.833 17.561,97.833 17.913 C 97.833 18.285,98.293 18.223,98.417 17.833 C 98.540 17.444,98.833 17.386,98.833 17.750 C 98.833 17.887,98.765 18.000,98.682 18.000 C 98.599 18.000,98.568 18.142,98.613 18.315 C 98.659 18.488,98.621 18.675,98.530 18.731 C 98.433 18.792,98.393 18.679,98.434 18.459 C 98.472 18.252,98.461 18.173,98.408 18.282 C 98.355 18.392,98.204 18.440,98.073 18.389 C 97.913 18.328,97.833 18.411,97.833 18.639 C 97.833 19.082,97.607 19.210,96.784 19.232 C 96.339 19.244,96.088 19.335,96.043 19.500 C 95.997 19.669,96.020 19.687,96.113 19.557 C 96.189 19.450,96.451 19.375,96.695 19.390 C 96.939 19.405,97.110 19.445,97.075 19.480 C 97.040 19.515,97.085 19.680,97.174 19.846 C 97.294 20.071,97.267 20.187,97.070 20.298 C 96.923 20.380,96.810 20.496,96.818 20.557 C 96.827 20.617,96.796 20.667,96.750 20.667 C 96.704 20.667,96.592 20.667,96.500 20.667 C 96.408 20.667,96.333 20.587,96.333 20.490 C 96.333 20.393,96.390 20.348,96.458 20.389 C 96.527 20.431,96.680 20.360,96.798 20.233 C 97.083 19.924,96.833 19.936,96.382 20.251 C 96.049 20.485,96.018 20.476,95.951 20.126 C 95.899 19.858,95.872 19.908,95.856 20.302 C 95.844 20.605,95.893 20.816,95.966 20.771 C 96.573 20.396,96.823 22.636,96.225 23.089 C 96.056 23.217,95.767 23.328,95.583 23.333 C 95.400 23.339,95.108 23.452,94.934 23.583 C 94.760 23.715,94.560 23.787,94.489 23.743 C 94.418 23.700,94.312 23.883,94.253 24.151 C 94.156 24.593,93.781 24.928,93.458 24.860 C 93.390 24.845,93.333 24.900,93.333 24.981 C 93.333 25.063,93.211 25.119,93.063 25.106 C 92.905 25.093,92.652 25.349,92.459 25.716 C 92.146 26.311,92.108 26.332,91.825 26.076 C 91.542 25.820,91.529 25.825,91.615 26.153 C 91.688 26.433,91.600 26.540,91.178 26.688 C 90.887 26.789,90.690 26.912,90.738 26.961 C 90.787 27.010,90.667 27.188,90.471 27.358 C 90.276 27.528,90.183 27.671,90.266 27.676 C 90.349 27.681,90.154 27.775,89.833 27.884 C 89.394 28.034,89.241 28.187,89.215 28.500 C 89.195 28.729,89.152 29.265,89.119 29.691 C 89.060 30.445,88.764 30.939,88.314 31.036 C 88.013 31.100,87.556 31.683,87.525 32.042 C 87.466 32.730,87.437 32.833,87.306 32.833 C 87.229 32.833,87.167 32.983,87.167 33.167 C 87.167 33.663,86.559 34.208,86.205 34.030 C 86.046 33.951,85.729 33.934,85.500 33.992 C 85.149 34.082,85.129 34.116,85.375 34.211 C 85.715 34.341,85.768 34.667,85.449 34.667 C 85.161 34.667,85.237 35.588,85.593 36.417 C 85.837 36.987,85.703 40.000,85.433 40.000 C 85.348 40.000,85.325 40.047,85.382 40.105 C 85.440 40.162,85.384 40.456,85.258 40.758 C 85.132 41.059,85.067 41.345,85.114 41.392 C 85.161 41.439,85.222 42.402,85.250 43.531 C 85.277 44.660,85.349 45.883,85.411 46.250 C 85.472 46.617,85.547 47.104,85.578 47.333 C 85.656 47.920,85.737 48.237,85.833 48.333 C 85.879 48.379,85.998 48.567,86.097 48.750 C 86.196 48.933,86.430 49.153,86.617 49.239 C 87.094 49.456,87.440 50.224,87.676 51.583 C 87.924 53.018,88.063 53.301,88.587 53.432 C 88.813 53.489,88.959 53.597,88.913 53.673 C 88.866 53.748,88.893 53.851,88.973 53.900 C 89.054 53.950,89.119 54.315,89.119 54.712 C 89.119 55.841,89.451 56.667,89.905 56.667 C 90.647 56.667,91.247 57.488,91.212 58.457 C 91.208 58.570,91.266 58.625,91.341 58.579 C 91.416 58.532,91.527 58.575,91.588 58.674 C 91.649 58.773,91.874 58.920,92.088 59.002 C 92.312 59.087,92.614 59.454,92.800 59.866 C 92.977 60.261,93.281 60.762,93.474 60.980 C 93.668 61.198,93.779 61.453,93.721 61.547 C 93.660 61.645,93.697 61.668,93.806 61.600 C 93.924 61.527,94.109 61.724,94.290 62.116 C 94.451 62.465,94.646 62.796,94.723 62.852 C 94.799 62.908,94.855 63.002,94.848 63.060 C 94.804 63.389,94.855 63.496,95.042 63.458 C 95.156 63.435,95.231 63.510,95.208 63.625 C 95.185 63.744,95.333 63.833,95.556 63.833 C 95.927 63.833,96.531 64.387,96.932 65.095 C 97.032 65.272,97.310 65.513,97.550 65.631 C 98.039 65.871,98.667 66.670,98.667 67.053 C 98.667 67.192,98.962 67.539,99.322 67.824 C 99.682 68.110,100.114 68.618,100.280 68.953 C 100.463 69.320,100.828 69.687,101.197 69.875 C 101.607 70.084,101.845 70.338,101.911 70.640 C 102.014 71.110,102.454 71.478,103.048 71.593 C 103.487 71.677,103.715 71.908,103.780 72.331 C 103.854 72.817,104.665 73.667,105.055 73.667 C 105.239 73.667,105.342 73.714,105.284 73.771 C 105.159 73.897,105.560 74.721,106.096 75.438 C 106.310 75.724,106.445 75.999,106.396 76.049 C 106.346 76.098,106.512 76.370,106.764 76.653 C 107.016 76.936,107.256 77.133,107.298 77.091 C 107.408 76.981,108.333 77.939,108.333 78.164 C 108.333 78.268,108.400 78.312,108.482 78.261 C 108.563 78.211,108.757 78.363,108.911 78.599 C 109.066 78.835,109.449 79.135,109.763 79.266 C 110.077 79.397,110.333 79.616,110.333 79.752 C 110.333 79.889,110.396 80.000,110.472 80.000 C 110.548 80.000,110.711 80.188,110.833 80.417 C 111.053 80.828,111.452 81.028,111.247 80.625 C 111.189 80.510,111.241 80.530,111.363 80.668 C 111.484 80.806,111.801 80.993,112.068 81.084 C 112.336 81.176,112.573 81.389,112.598 81.562 C 112.660 81.990,113.450 82.785,113.935 82.906 C 114.154 82.961,114.333 83.127,114.333 83.275 C 114.333 83.423,114.502 83.691,114.708 83.871 C 115.128 84.237,116.000 84.722,116.000 84.589 C 116.000 84.542,116.150 84.632,116.333 84.789 C 116.517 84.946,116.667 85.245,116.667 85.454 C 116.667 85.819,116.720 85.833,118.090 85.833 L 119.513 85.833 119.484 84.792 C 119.439 83.216,119.475 82.997,119.792 82.898 C 120.347 82.725,121.084 82.271,121.301 81.970 C 121.421 81.803,121.669 81.667,121.853 81.667 C 122.036 81.667,122.144 81.599,122.093 81.516 C 122.042 81.433,122.337 81.250,122.750 81.109 C 123.162 80.969,123.501 80.905,123.503 80.968 C 123.504 81.032,123.573 80.976,123.657 80.844 C 123.782 80.646,123.853 80.642,124.070 80.822 C 124.214 80.942,124.479 81.001,124.660 80.954 C 124.840 80.906,125.075 80.973,125.181 81.101 C 125.441 81.414,125.626 81.394,125.718 81.042 C 125.791 80.764,125.796 80.764,125.814 81.042 C 125.837 81.382,126.490 81.443,126.800 81.133 C 127.063 80.870,127.057 80.167,126.792 80.164 C 126.651 80.162,126.663 80.111,126.829 80.006 C 127.036 79.875,127.014 79.786,126.684 79.435 C 126.045 78.754,126.210 76.724,126.911 76.648 C 127.999 76.530,128.263 76.464,128.501 76.249 C 128.740 76.032,128.778 76.031,128.778 76.242 C 128.778 76.376,128.697 76.437,128.597 76.377 C 128.474 76.304,128.476 76.346,128.602 76.510 C 128.704 76.642,128.837 76.956,128.897 77.208 C 129.050 77.850,129.297 77.781,129.279 77.102 C 129.268 76.677,129.203 76.560,129.019 76.631 C 128.841 76.699,128.862 76.607,129.095 76.296 C 129.485 75.775,129.646 76.037,129.547 77.032 C 129.489 77.605,129.521 77.667,129.875 77.667 C 130.360 77.667,130.667 77.377,130.667 76.919 C 130.667 76.421,130.007 76.389,129.980 76.885 C 129.965 77.161,129.932 77.128,129.845 76.750 C 129.707 76.153,129.697 76.174,130.144 76.088 C 130.340 76.050,130.500 76.102,130.500 76.204 C 130.500 76.306,130.548 76.341,130.607 76.282 C 130.666 76.223,130.635 76.079,130.538 75.962 C 130.398 75.794,130.526 75.762,131.154 75.806 C 132.502 75.901,133.172 74.379,132.009 73.864 C 131.665 73.712,131.549 73.567,131.621 73.379 C 131.677 73.232,131.654 73.155,131.570 73.207 C 131.486 73.259,131.395 72.971,131.368 72.567 C 131.340 72.139,131.392 71.833,131.493 71.833 C 131.589 71.833,131.667 71.683,131.667 71.500 C 131.667 71.317,131.754 71.167,131.861 71.167 C 131.968 71.167,132.006 71.117,131.946 71.057 C 131.834 70.945,132.546 70.199,133.389 69.546 C 133.800 69.228,133.934 68.984,133.987 68.458 C 133.994 68.390,134.123 68.333,134.273 68.333 C 134.614 68.333,134.922 67.957,135.342 67.026 C 135.526 66.617,135.813 66.264,136.001 66.215 C 136.184 66.167,136.333 66.070,136.333 66.000 C 136.333 65.930,136.479 65.834,136.657 65.788 C 136.835 65.741,137.086 65.451,137.214 65.143 C 137.490 64.483,137.811 64.188,138.434 64.022 C 138.765 63.933,138.949 63.726,139.110 63.262 C 139.317 62.663,140.159 61.613,140.173 61.936 C 140.177 62.017,140.346 61.708,140.548 61.250 C 141.030 60.160,141.535 59.333,141.719 59.333 C 142.136 59.333,143.011 58.776,142.803 58.642 C 142.622 58.525,142.624 58.474,142.813 58.352 C 142.939 58.271,142.989 58.117,142.924 58.011 C 142.710 57.666,143.299 57.000,143.817 57.000 C 144.078 57.000,144.386 56.888,144.500 56.750 C 144.666 56.551,144.666 56.500,144.500 56.500 C 144.361 56.500,144.345 56.431,144.449 56.292 C 144.536 56.177,144.620 55.863,144.637 55.595 C 144.654 55.326,144.780 54.935,144.917 54.726 C 145.054 54.516,145.167 54.230,145.167 54.089 C 145.167 53.948,145.260 53.825,145.375 53.814 C 145.490 53.804,145.696 53.785,145.833 53.772 C 146.002 53.757,146.098 53.532,146.128 53.083 C 146.224 51.636,146.798 50.833,147.734 50.833 C 148.003 50.833,148.176 50.787,148.119 50.730 C 148.062 50.673,148.127 50.516,148.264 50.379 C 148.416 50.227,148.470 49.994,148.403 49.774 C 148.344 49.578,148.285 49.342,148.272 49.250 C 148.260 49.158,148.202 49.046,148.143 49.000 C 148.084 48.954,148.104 48.504,148.188 48.000 C 148.535 45.926,148.606 45.008,148.428 44.934 C 148.321 44.889,148.334 44.854,148.458 44.846 C 148.573 44.839,148.667 44.652,148.667 44.430 C 148.667 43.902,148.827 43.500,149.038 43.500 C 149.145 43.500,149.140 43.582,149.023 43.722 C 148.883 43.890,148.899 43.944,149.086 43.944 C 149.222 43.944,149.333 43.882,149.333 43.806 C 149.333 43.729,149.427 43.685,149.542 43.708 C 149.656 43.731,149.729 43.651,149.704 43.529 C 149.679 43.406,149.739 43.358,149.841 43.421 C 149.941 43.483,149.981 43.643,149.930 43.776 C 149.878 43.911,149.910 43.972,150.002 43.915 C 150.093 43.859,150.167 43.706,150.167 43.573 C 150.167 43.441,150.250 43.333,150.351 43.333 C 150.453 43.333,150.492 43.221,150.440 43.083 C 150.387 42.946,150.416 42.833,150.505 42.833 C 150.780 42.833,150.683 42.133,150.375 41.891 C 150.168 41.728,150.153 41.675,150.323 41.706 C 150.693 41.774,150.745 41.138,150.393 40.864 C 150.100 40.635,150.100 40.628,150.387 40.727 C 150.616 40.806,150.675 40.761,150.627 40.541 C 150.592 40.381,150.455 40.276,150.323 40.308 C 149.235 40.574,148.754 40.344,148.622 39.498 C 148.573 39.178,148.430 38.467,148.306 37.917 C 148.109 37.048,148.081 36.052,148.205 34.303 C 148.222 34.058,148.308 33.901,148.396 33.956 C 148.490 34.013,148.510 33.933,148.445 33.764 C 148.384 33.604,148.333 33.460,148.333 33.444 C 148.333 33.427,147.977 33.442,147.542 33.475 C 147.106 33.509,146.804 33.480,146.871 33.411 C 146.937 33.343,146.770 33.008,146.500 32.667 C 146.230 32.326,146.053 32.002,146.108 31.948 C 146.252 31.804,145.734 31.333,145.431 31.333 C 145.121 31.333,144.327 30.188,144.289 29.687 C 144.274 29.492,144.203 29.333,144.131 29.333 C 144.059 29.333,144.000 29.201,144.000 29.040 C 144.000 28.879,143.857 28.658,143.683 28.549 C 143.391 28.367,143.161 27.558,142.971 26.042 C 142.956 25.927,142.882 25.833,142.806 25.833 C 142.729 25.833,142.667 25.721,142.667 25.583 C 142.667 25.371,142.188 25.241,141.647 25.306 C 141.590 25.313,141.253 25.060,140.897 24.743 C 140.541 24.426,140.162 24.167,140.056 24.167 C 139.949 24.167,139.836 24.110,139.806 24.042 C 139.737 23.888,138.475 23.238,138.330 23.282 C 138.273 23.299,138.119 23.156,137.988 22.964 C 137.326 21.991,136.114 20.890,136.605 21.708 C 136.705 21.875,136.679 21.875,136.475 21.710 C 136.334 21.596,136.181 21.542,136.133 21.589 C 136.086 21.636,135.953 21.560,135.837 21.421 C 135.721 21.281,135.485 21.167,135.313 21.167 C 135.141 21.167,135.000 21.056,135.000 20.920 C 135.000 20.784,134.813 20.626,134.583 20.568 C 134.354 20.511,134.167 20.397,134.167 20.315 C 134.167 20.234,134.058 20.167,133.926 20.167 C 133.794 20.167,133.433 20.018,133.124 19.835 C 132.815 19.653,132.305 19.476,131.990 19.441 C 131.653 19.404,131.417 19.286,131.417 19.155 C 131.417 19.032,131.267 18.891,131.083 18.841 C 130.900 18.791,130.730 18.653,130.706 18.535 C 130.672 18.370,130.740 18.361,130.994 18.497 C 131.265 18.642,131.308 18.628,131.228 18.421 C 131.175 18.281,131.029 18.167,130.905 18.167 C 130.409 18.167,129.719 16.046,130.065 15.589 C 130.358 15.204,130.984 15.050,131.772 15.170 C 132.172 15.231,132.500 15.236,132.500 15.182 C 132.500 15.128,132.876 15.095,133.335 15.109 L 134.171 15.135 134.127 9.026 L 134.083 2.917 133.292 2.866 L 132.500 2.815 132.500 2.171 C 132.500 1.103,132.403 1.000,131.399 1.000 C 130.511 1.000,130.500 0.994,130.500 0.500 L 130.500 0.000 127.940 -0.000 L 125.380 -0.000 125.275 0.875 C 125.217 1.356,125.169 1.988,125.168 2.278 C 125.167 2.739,125.098 2.822,124.625 2.922 C 123.919 3.072,123.500 3.454,123.500 3.948 C 123.500 4.378,123.487 4.385,122.220 4.615 L 121.357 4.771 121.178 4.057 C 120.954 3.170,120.647 2.998,119.068 2.879 L 117.833 2.785 117.831 2.268 C 117.826 1.007,117.814 1.000,115.897 1.000 L 114.167 1.000 114.167 0.500 L 114.167 0.000 108.667 0.000 L 103.167 0.000 103.167 1.387 M134.167 17.398 C 134.167 17.434,134.424 17.494,134.738 17.530 C 135.053 17.567,135.273 17.538,135.228 17.465 C 135.148 17.335,134.167 17.273,134.167 17.398 M97.902 19.606 C 98.037 19.956,97.699 20.038,97.517 19.699 C 97.392 19.465,97.409 19.389,97.585 19.389 C 97.714 19.389,97.856 19.486,97.902 19.606 M93.167 21.145 C 93.167 21.224,93.404 21.262,93.694 21.228 C 94.448 21.140,94.499 21.000,93.778 21.000 C 93.442 21.000,93.167 21.065,93.167 21.145 M91.000 23.010 C 91.000 23.107,90.924 23.140,90.832 23.083 C 90.740 23.026,90.618 23.099,90.562 23.247 C 90.396 23.677,90.606 23.718,90.970 23.327 C 91.156 23.127,91.373 23.005,91.454 23.055 C 91.534 23.104,91.708 23.076,91.841 22.992 C 92.017 22.880,91.936 22.838,91.542 22.836 C 91.244 22.834,91.000 22.913,91.000 23.010 M142.797 23.056 C 143.006 23.172,143.119 23.332,143.047 23.410 C 142.975 23.489,143.014 23.497,143.133 23.429 C 143.413 23.267,143.084 22.831,142.688 22.839 C 142.491 22.844,142.521 22.903,142.797 23.056 M288.167 22.955 C 287.789 23.099,287.672 23.354,287.669 24.042 L 287.667 24.667 286.006 24.667 C 284.143 24.667,284.000 24.755,284.000 25.906 L 284.000 26.500 283.184 26.500 C 282.270 26.500,282.167 26.620,282.167 27.680 L 282.167 28.333 281.351 28.333 C 280.352 28.333,280.333 28.372,280.333 30.430 L 280.333 32.000 279.589 32.000 C 278.470 32.000,278.452 32.080,278.527 36.624 C 278.599 40.969,278.608 41.000,279.757 41.000 L 280.284 41.000 280.398 42.623 C 280.528 44.463,280.562 44.525,281.538 44.655 C 282.231 44.747,282.251 44.768,282.300 45.417 C 282.371 46.353,282.649 46.500,284.356 46.500 L 285.816 46.500 285.866 47.375 L 285.917 48.250 287.708 48.297 L 289.500 48.345 289.500 48.933 C 289.500 50.150,289.540 50.167,292.414 50.167 L 294.983 50.167 295.033 51.042 L 295.083 51.917 295.937 51.966 L 296.792 52.016 296.883 52.695 C 296.997 53.544,297.124 53.670,297.987 53.786 L 298.682 53.879 298.633 54.815 L 298.583 55.750 297.867 55.802 C 297.103 55.857,296.833 56.194,296.833 57.094 L 296.833 57.500 292.265 57.500 L 287.696 57.500 287.585 56.843 C 287.400 55.746,287.417 55.750,282.766 55.750 L 278.583 55.750 278.539 60.063 C 278.489 64.873,278.481 64.833,279.582 64.833 L 280.290 64.833 280.398 65.648 C 280.533 66.659,280.539 66.661,283.527 66.664 L 285.804 66.667 285.915 67.324 C 286.106 68.457,285.836 68.417,293.267 68.417 C 300.629 68.417,300.303 68.465,300.452 67.354 L 300.544 66.667 302.907 66.667 C 305.604 66.667,305.808 66.591,305.949 65.544 L 306.042 64.849 306.896 64.800 L 307.750 64.750 307.800 63.883 L 307.850 63.017 308.717 62.967 L 309.583 62.917 309.634 62.042 L 309.684 61.167 310.509 61.167 L 311.333 61.167 311.333 59.342 L 311.333 57.517 312.208 57.467 L 313.083 57.417 313.128 53.887 L 313.173 50.358 312.253 50.243 L 311.333 50.128 311.333 48.397 L 311.333 46.667 310.509 46.667 L 309.684 46.667 309.634 45.792 L 309.583 44.917 308.717 44.867 L 307.850 44.816 307.800 43.950 L 307.750 43.083 306.904 43.034 L 306.058 42.985 305.904 42.117 L 305.750 41.250 303.958 41.203 L 302.167 41.155 302.167 40.506 C 302.167 39.413,301.971 39.333,299.269 39.333 L 296.894 39.333 296.739 38.458 L 296.583 37.583 294.875 37.536 L 293.167 37.488 293.167 35.661 L 293.167 33.833 293.883 33.833 C 294.784 33.833,295.000 33.617,295.000 32.717 L 295.000 32.000 296.814 32.000 L 298.629 32.000 298.739 32.735 C 298.879 33.668,298.903 33.677,301.792 33.790 L 304.167 33.882 304.167 34.612 C 304.167 35.591,304.500 35.707,307.117 35.637 C 309.826 35.565,309.583 36.114,309.583 30.069 C 309.583 24.169,309.772 24.673,307.563 24.669 L 306.043 24.667 305.935 23.852 C 305.848 23.198,305.754 23.018,305.455 22.938 C 304.982 22.811,288.502 22.827,288.167 22.955 M89.667 24.833 C 89.667 25.029,89.795 25.029,90.250 24.833 C 90.545 24.706,90.531 24.689,90.125 24.678 C 89.873 24.672,89.667 24.742,89.667 24.833 M123.394 25.312 C 123.546 26.260,123.701 26.319,126.390 26.441 L 128.833 26.552 128.833 27.172 C 128.833 28.051,129.112 28.202,130.920 28.296 L 132.500 28.379 132.500 29.170 C 132.500 30.037,132.659 30.160,133.792 30.164 C 134.323 30.167,134.333 30.182,134.333 30.921 C 134.333 31.749,134.646 32.000,135.678 32.000 C 136.141 32.000,136.167 32.036,136.167 32.703 C 136.167 33.860,136.621 34.803,137.360 35.180 C 137.988 35.501,138.000 35.525,138.007 36.462 C 138.020 38.115,138.223 38.759,138.977 39.536 L 139.667 40.247 139.667 43.627 L 139.667 47.007 139.237 47.203 C 138.641 47.475,138.178 48.469,138.073 49.706 C 137.860 52.211,137.875 52.167,137.252 52.167 C 136.465 52.167,136.167 52.531,136.167 53.492 C 136.167 54.228,136.125 54.310,135.659 54.503 C 135.379 54.619,135.045 54.919,134.915 55.170 C 134.653 55.676,134.362 55.833,133.685 55.833 C 133.192 55.833,132.757 56.104,132.616 56.500 C 132.567 56.637,132.520 56.100,132.513 55.306 L 132.500 53.863 133.169 53.750 C 134.122 53.589,134.167 53.412,134.167 49.761 L 134.167 46.500 135.083 46.500 C 135.894 46.500,136.000 46.461,136.000 46.161 C 136.000 45.817,137.018 44.667,137.322 44.667 C 137.721 44.667,137.833 43.882,137.833 41.094 C 137.833 37.777,137.738 37.500,136.592 37.500 L 136.017 37.500 135.967 36.625 L 135.917 35.750 133.321 35.704 L 130.726 35.659 130.571 34.788 L 130.417 33.917 129.634 33.866 L 128.851 33.816 128.739 33.070 C 128.613 32.229,128.333 32.000,127.428 32.000 C 126.862 32.000,126.833 31.972,126.833 31.430 C 126.833 30.504,126.702 30.350,125.817 30.232 C 125.010 30.125,125.000 30.116,124.997 29.520 C 124.993 28.529,124.866 28.452,123.056 28.346 L 121.417 28.250 121.365 27.622 C 121.276 26.549,120.949 26.450,117.762 26.527 C 114.663 26.602,114.333 26.722,114.333 27.776 L 114.333 28.333 112.589 28.333 C 110.634 28.333,110.500 28.413,110.500 29.572 C 110.500 30.162,110.494 30.167,109.783 30.167 C 108.883 30.167,108.667 30.383,108.667 31.283 L 108.667 32.000 107.851 32.000 C 106.937 32.000,106.833 32.120,106.833 33.180 L 106.833 33.833 106.018 33.833 C 105.104 33.833,105.000 33.954,105.000 35.014 L 105.000 35.667 101.510 35.667 C 98.900 35.667,97.986 35.719,97.886 35.875 C 97.700 36.166,97.612 44.935,97.787 45.750 C 97.927 46.401,97.948 46.418,98.703 46.467 L 99.475 46.517 99.577 47.634 C 99.763 49.657,99.874 49.866,100.875 50.077 L 101.333 50.173 101.337 52.462 C 101.342 56.425,101.596 57.333,102.699 57.333 C 102.956 57.333,103.167 57.417,103.167 57.519 C 103.167 57.631,103.017 57.665,102.792 57.605 C 102.585 57.550,102.173 57.504,101.875 57.502 C 101.361 57.500,101.333 57.468,101.331 56.875 C 101.327 56.001,101.153 55.810,100.271 55.710 C 99.528 55.626,99.500 55.603,99.500 55.075 C 99.500 54.206,99.356 54.000,98.746 54.000 C 97.827 54.000,97.667 53.868,97.666 53.107 C 97.664 51.612,97.070 50.500,96.273 50.500 L 95.879 50.500 95.758 47.009 C 95.692 45.089,95.691 42.098,95.758 40.363 L 95.878 37.208 96.397 36.979 C 97.093 36.672,97.651 35.528,97.660 34.388 C 97.666 33.558,97.688 33.519,98.233 33.339 C 98.626 33.209,98.866 32.989,99.017 32.618 C 99.309 31.904,99.501 31.730,100.147 31.588 C 100.588 31.491,100.753 31.327,101.007 30.734 C 101.272 30.115,101.395 30.000,101.790 30.000 C 102.476 30.000,102.971 29.584,103.031 28.956 C 103.078 28.473,103.145 28.411,103.667 28.362 C 105.438 28.195,106.500 27.670,106.500 26.963 C 106.500 26.573,106.509 26.571,109.028 26.366 C 111.369 26.175,111.779 26.034,111.938 25.370 C 111.997 25.121,112.078 24.860,112.116 24.792 C 112.155 24.723,114.685 24.667,117.739 24.667 L 123.291 24.667 123.394 25.312 M144.333 24.786 C 144.471 24.837,144.733 24.956,144.917 25.050 C 145.215 25.203,145.226 25.192,145.021 24.944 C 144.895 24.791,144.633 24.673,144.438 24.680 C 144.194 24.689,144.162 24.722,144.333 24.786 M88.869 25.031 C 88.565 25.335,88.606 26.013,88.921 25.892 C 89.130 25.812,89.138 25.748,88.963 25.532 C 88.790 25.319,88.790 25.294,88.962 25.397 C 89.079 25.467,89.164 25.463,89.151 25.387 C 89.092 25.045,89.187 24.938,89.349 25.167 C 89.492 25.370,89.513 25.372,89.461 25.177 C 89.372 24.851,89.113 24.787,88.869 25.031 M0.000 30.153 L 0.000 33.833 0.500 33.833 C 0.936 33.833,1.000 33.893,1.000 34.296 C 1.000 35.067,1.423 35.500,2.176 35.500 L 2.833 35.500 2.833 37.316 C 2.833 39.310,2.846 39.333,3.909 39.333 C 4.439 39.333,4.461 39.360,4.565 40.150 C 4.683 41.035,4.838 41.167,5.758 41.167 C 6.307 41.167,6.325 41.188,6.430 41.986 C 6.548 42.870,6.712 42.993,7.787 42.998 C 8.252 43.000,8.343 43.072,8.464 43.541 C 8.596 44.049,8.856 44.266,9.750 44.610 C 10.007 44.710,9.924 44.752,9.388 44.795 C 8.434 44.872,8.377 44.995,8.312 47.083 C 8.180 51.387,8.267 51.811,9.309 51.951 L 10.000 52.044 9.999 54.064 L 9.998 56.083 9.492 56.371 C 8.585 56.887,7.995 59.773,8.638 60.548 C 9.012 61.000,10.581 61.217,12.795 61.122 C 15.073 61.025,15.257 60.946,15.418 59.990 L 15.529 59.333 16.524 59.333 C 17.156 59.333,17.481 59.271,17.415 59.164 C 17.357 59.071,17.222 59.046,17.113 59.109 C 17.005 59.172,17.039 59.080,17.188 58.904 C 17.337 58.727,17.438 58.433,17.412 58.250 C 17.223 56.903,17.196 55.748,17.351 55.562 C 17.458 55.433,17.533 54.311,17.540 52.716 L 17.553 50.083 17.026 49.524 C 16.187 48.633,16.486 47.198,17.607 46.729 C 17.934 46.593,18.357 46.336,18.548 46.157 C 18.986 45.749,19.333 45.741,19.333 46.140 C 19.333 46.455,19.956 46.833,20.475 46.833 C 22.016 46.833,24.264 48.044,24.597 49.053 C 24.702 49.375,25.665 49.422,26.450 49.144 C 26.725 49.047,26.796 49.071,26.731 49.240 C 26.666 49.408,26.787 49.452,27.206 49.411 C 27.926 49.342,28.116 49.468,28.224 50.084 C 28.271 50.359,28.283 49.482,28.250 48.135 C 28.181 45.342,28.083 45.044,27.189 44.901 C 26.577 44.803,26.550 44.771,26.403 43.941 L 26.250 43.083 25.474 43.033 L 24.699 42.983 24.578 43.699 C 24.436 44.540,24.057 44.921,23.203 45.081 C 22.862 45.144,22.508 45.258,22.417 45.332 C 22.325 45.407,21.960 45.514,21.606 45.570 C 21.251 45.625,20.900 45.709,20.825 45.755 C 20.751 45.801,20.640 45.759,20.580 45.661 C 20.504 45.538,20.399 45.543,20.235 45.679 C 20.049 45.833,20.000 45.818,20.000 45.604 C 20.000 45.455,19.906 45.352,19.792 45.375 C 19.663 45.401,19.603 45.273,19.635 45.042 C 19.685 44.686,19.632 44.667,18.620 44.667 C 17.523 44.667,15.638 44.164,15.531 43.843 C 15.499 43.746,15.375 43.667,15.255 43.667 C 13.856 43.667,13.726 34.727,15.114 33.984 C 15.469 33.794,15.509 33.672,15.466 32.926 L 15.417 32.083 14.550 32.033 L 13.684 31.983 13.633 31.117 L 13.583 30.250 12.708 30.200 L 11.833 30.149 11.833 29.503 C 11.833 28.360,11.742 28.333,7.905 28.333 L 4.500 28.333 4.500 27.782 C 4.500 26.709,4.265 26.590,2.014 26.528 L 0.000 26.472 0.000 30.153 M88.117 26.702 C 87.412 26.889,87.087 27.296,86.946 28.167 C 86.863 28.684,86.871 28.703,87.023 28.333 C 87.435 27.332,87.614 27.101,88.113 26.931 C 88.530 26.789,89.121 26.442,88.819 26.517 C 88.781 26.527,88.465 26.610,88.117 26.702 M317.117 32.121 C 317.076 32.192,316.991 32.606,316.928 33.042 L 316.813 33.833 315.990 33.833 L 315.167 33.833 315.167 50.250 L 315.167 66.667 319.667 66.667 L 324.167 66.667 324.167 59.333 L 324.167 52.000 325.635 52.000 C 327.365 52.000,327.652 51.849,327.783 50.869 L 327.877 50.167 328.747 50.167 L 329.617 50.167 329.732 51.789 C 329.861 53.631,329.877 53.659,330.813 53.785 L 331.500 53.877 331.500 60.275 L 331.500 66.672 336.042 66.628 L 340.583 66.583 340.629 57.000 C 340.683 45.887,340.754 46.667,339.688 46.667 L 338.883 46.667 338.771 45.042 C 338.617 42.808,339.334 43.000,331.135 43.000 L 324.167 43.000 324.167 38.417 L 324.167 33.833 323.259 33.833 L 322.351 33.833 322.300 32.958 L 322.250 32.083 319.721 32.037 C 318.330 32.012,317.158 32.050,317.117 32.121 M118.397 35.552 C 118.591 35.590,118.337 35.627,117.833 35.633 C 117.130 35.643,117.004 35.611,117.292 35.495 C 117.498 35.412,117.672 35.210,117.678 35.047 C 117.687 34.801,117.720 34.813,117.866 35.116 C 117.963 35.318,118.202 35.514,118.397 35.552 M83.218 43.917 C 83.219 44.467,83.250 44.672,83.287 44.372 C 83.325 44.072,83.324 43.622,83.286 43.372 C 83.248 43.122,83.217 43.367,83.218 43.917 M348.111 43.111 C 348.050 43.172,348.000 43.585,348.000 44.028 L 348.000 44.833 347.083 44.833 L 346.167 44.833 346.167 45.750 L 346.167 46.667 345.250 46.667 L 344.333 46.667 344.333 48.386 L 344.333 50.106 343.458 50.261 L 342.583 50.417 342.539 55.527 C 342.490 61.272,342.469 61.167,343.679 61.167 L 344.333 61.167 344.333 62.738 C 344.333 64.563,344.485 64.833,345.512 64.833 C 346.142 64.833,346.167 64.854,346.167 65.385 C 346.167 66.497,346.347 66.573,349.152 66.642 L 351.667 66.703 351.667 67.429 C 351.667 68.540,351.675 68.542,357.200 68.475 C 362.586 68.410,362.500 68.430,362.500 67.224 L 362.500 66.678 364.292 66.631 L 366.083 66.583 366.134 65.708 L 366.184 64.833 367.092 64.833 L 368.000 64.833 368.000 63.925 L 368.000 63.017 368.875 62.967 L 369.750 62.917 369.797 61.125 L 369.845 59.333 370.556 59.333 C 370.947 59.333,371.351 59.249,371.455 59.145 C 371.595 59.005,371.657 61.031,371.697 67.056 C 371.746 74.566,371.772 75.177,372.047 75.453 C 372.435 75.840,381.983 75.916,382.366 75.534 C 382.527 75.374,382.607 74.306,382.674 71.450 C 382.724 69.324,382.780 67.713,382.799 67.872 C 382.855 68.339,383.540 68.417,387.611 68.417 C 391.899 68.417,391.673 68.470,391.791 67.425 L 391.877 66.667 393.488 66.667 C 395.340 66.667,395.500 66.578,395.500 65.550 L 395.500 64.833 396.153 64.833 C 397.210 64.833,397.333 64.728,397.333 63.830 L 397.333 63.029 397.990 62.918 C 399.123 62.727,399.078 63.033,399.136 55.082 C 399.197 46.706,399.205 46.770,398.115 46.699 L 397.333 46.648 397.333 46.004 C 397.333 44.954,397.228 44.833,396.316 44.833 L 395.500 44.833 395.500 44.180 C 395.500 42.889,396.626 43.001,383.658 43.002 C 374.589 43.004,371.988 43.050,371.884 43.210 C 371.810 43.324,371.712 44.993,371.667 46.919 L 371.583 50.420 370.708 50.281 L 369.833 50.141 369.833 48.404 L 369.833 46.667 368.917 46.667 L 368.000 46.667 368.000 45.750 L 368.000 44.833 367.083 44.833 L 366.167 44.833 366.167 43.917 L 366.167 43.000 357.194 43.000 C 352.260 43.000,348.172 43.050,348.111 43.111 M359.000 50.824 C 359.000 51.577,359.433 52.000,360.204 52.000 L 360.667 52.000 360.667 54.833 L 360.667 57.667 360.006 57.667 C 359.261 57.667,359.000 57.967,359.000 58.822 L 359.000 59.333 356.250 59.333 L 353.500 59.333 353.500 55.667 L 353.500 52.000 353.963 52.000 C 354.682 52.000,355.167 51.571,355.167 50.935 C 355.167 50.172,355.180 50.167,357.194 50.167 L 359.000 50.167 359.000 50.824 M388.203 51.958 L 388.250 53.750 389.125 53.800 L 390.000 53.851 390.000 54.759 L 390.000 55.667 389.406 55.667 C 388.255 55.667,388.167 55.810,388.167 57.673 L 388.167 59.333 386.355 59.333 L 384.543 59.333 384.458 58.575 C 384.353 57.644,384.356 57.647,383.425 57.542 L 382.667 57.457 382.667 54.728 L 382.667 52.000 383.482 52.000 C 384.396 52.000,384.500 51.880,384.500 50.820 L 384.500 50.167 386.328 50.167 L 388.155 50.167 388.203 51.958 M146.576 57.178 C 146.516 57.276,146.507 57.396,146.556 57.444 C 146.675 57.564,147.000 57.353,147.000 57.157 C 147.000 56.944,146.712 56.958,146.576 57.178 M128.000 59.453 C 127.297 59.532,127.000 59.877,127.000 60.615 L 127.000 61.167 125.125 61.173 C 120.005 61.190,118.482 61.462,118.167 62.415 C 117.874 63.304,117.193 63.239,116.242 62.233 L 115.518 61.466 113.801 61.323 C 112.856 61.245,111.285 61.178,110.310 61.174 L 108.537 61.167 108.431 60.600 C 108.295 59.875,108.040 59.673,107.051 59.507 C 106.607 59.432,111.221 59.376,117.417 59.380 C 123.558 59.383,128.321 59.416,128.000 59.453 M94.039 65.500 C 94.039 65.821,94.073 65.952,94.115 65.792 C 94.157 65.631,94.157 65.369,94.115 65.208 C 94.073 65.048,94.039 65.179,94.039 65.500 M103.167 76.407 C 103.167 76.631,103.228 76.852,103.303 76.898 C 103.378 76.944,103.407 76.761,103.368 76.491 C 103.280 75.896,103.167 75.848,103.167 76.407 M105.000 78.129 C 105.000 78.414,105.069 78.689,105.152 78.741 C 105.238 78.794,105.268 78.599,105.220 78.293 C 105.107 77.569,105.000 77.489,105.000 78.129 M106.872 80.167 C 106.872 80.487,106.906 80.619,106.948 80.458 C 106.990 80.298,106.990 80.035,106.948 79.875 C 106.906 79.715,106.872 79.846,106.872 80.167 M108.938 82.746 C 108.992 82.886,109.140 83.000,109.268 83.000 C 109.593 83.000,109.557 82.875,109.170 82.669 C 108.902 82.525,108.859 82.539,108.938 82.746 M112.372 85.333 C 112.372 85.654,112.406 85.785,112.448 85.625 C 112.490 85.465,112.490 85.202,112.448 85.042 C 112.406 84.881,112.372 85.012,112.372 85.333 " stroke="none" fill="#fcfcfb" fill-rule="evenodd"></path><path id="path1" d="M133.585 15.827 C 133.528 16.009,133.260 16.315,132.990 16.507 C 132.452 16.890,132.356 17.167,132.760 17.167 C 132.903 17.167,132.978 17.099,132.926 17.016 C 132.875 16.932,132.974 16.901,133.147 16.947 C 133.675 17.085,134.300 15.871,133.845 15.591 C 133.760 15.538,133.643 15.644,133.585 15.827 M101.771 15.919 C 101.468 16.222,101.435 16.472,101.651 16.814 C 101.766 16.995,101.821 16.968,101.910 16.688 C 101.972 16.492,102.224 16.223,102.470 16.089 C 102.716 15.956,102.829 15.844,102.722 15.840 C 102.615 15.836,102.418 15.792,102.285 15.740 C 102.152 15.689,101.921 15.770,101.771 15.919 M138.474 19.438 C 138.999 19.632,139.262 19.849,139.426 20.228 L 139.654 20.750 139.660 20.292 C 139.664 20.040,139.587 19.833,139.490 19.833 C 139.393 19.833,139.357 19.764,139.410 19.678 C 139.542 19.464,139.371 19.388,138.500 19.271 L 137.750 19.171 138.474 19.438 M26.685 23.062 C 26.596 23.169,26.499 23.588,26.470 23.992 L 26.417 24.728 24.667 24.739 L 22.917 24.750 22.917 25.525 C 22.917 26.537,22.955 26.515,21.144 26.528 C 19.301 26.542,19.167 26.620,19.167 27.689 L 19.167 28.504 18.475 28.393 C 17.636 28.259,17.333 28.561,17.333 29.532 L 17.333 30.167 16.579 30.167 C 15.924 30.167,15.804 30.223,15.664 30.591 C 15.473 31.093,15.502 33.815,15.699 33.937 C 15.901 34.062,16.500 35.354,16.500 35.665 C 16.500 35.812,16.594 36.027,16.708 36.142 C 16.853 36.286,16.924 37.079,16.942 38.738 C 16.976 41.965,16.832 41.798,19.833 42.112 C 20.337 42.164,20.825 42.264,20.917 42.332 C 21.008 42.401,21.233 42.427,21.417 42.389 C 22.932 42.079,24.301 42.231,24.503 42.731 C 24.606 42.985,24.648 42.797,24.656 42.060 L 24.667 41.037 25.251 40.927 C 26.052 40.777,26.299 40.317,26.432 38.727 L 26.545 37.373 27.177 37.183 C 27.694 37.028,27.846 36.880,28.012 36.372 C 28.252 35.636,28.414 35.506,29.092 35.503 C 29.766 35.499,30.000 35.232,30.000 34.467 L 30.000 33.833 31.375 33.827 C 33.841 33.817,35.333 33.247,35.333 32.315 C 35.333 31.854,37.830 31.831,37.839 32.292 C 37.857 33.309,38.983 33.696,42.208 33.794 L 44.833 33.873 44.833 34.607 C 44.833 35.605,45.052 35.667,48.562 35.667 C 52.420 35.667,52.036 36.242,51.970 30.569 C 51.901 24.580,51.959 24.672,48.333 24.683 C 47.554 24.685,46.823 24.682,46.708 24.677 C 46.571 24.670,46.500 24.386,46.500 23.845 C 46.500 23.205,46.435 23.004,46.208 22.939 C 45.543 22.747,26.848 22.865,26.685 23.062 M146.584 26.834 C 146.751 27.018,146.923 27.133,146.967 27.088 C 147.079 26.976,146.663 26.500,146.454 26.500 C 146.359 26.500,146.418 26.650,146.584 26.834 M87.398 27.422 C 87.246 27.654,87.169 27.891,87.227 27.950 C 87.286 28.008,87.333 27.971,87.333 27.868 C 87.333 27.764,87.497 27.527,87.698 27.340 C 87.899 27.153,87.975 27.000,87.869 27.000 C 87.762 27.000,87.550 27.190,87.398 27.422 M85.333 30.427 C 85.333 30.569,85.277 30.652,85.208 30.609 C 85.140 30.567,85.071 30.806,85.055 31.141 L 85.027 31.750 85.183 31.217 C 85.268 30.923,85.412 30.637,85.503 30.582 C 85.716 30.450,85.714 30.167,85.500 30.167 C 85.408 30.167,85.333 30.284,85.333 30.427 M59.250 32.230 C 57.481 32.903,57.593 31.903,57.535 47.583 C 57.484 61.380,57.559 63.587,58.097 64.182 C 58.563 64.697,59.861 64.834,64.133 64.820 C 70.757 64.798,70.234 65.741,70.297 53.708 L 70.344 44.667 71.154 44.667 C 72.048 44.667,72.167 44.539,72.167 43.570 L 72.167 43.000 76.488 43.000 C 80.938 43.000,81.333 42.943,81.333 42.302 C 81.333 42.206,81.552 41.878,81.819 41.574 C 83.161 40.046,83.077 35.047,81.699 34.421 C 81.415 34.291,81.319 34.057,81.231 33.283 C 81.082 31.966,81.249 32.000,74.864 32.002 C 68.955 32.005,68.716 32.026,68.622 32.559 C 68.560 32.909,68.556 32.909,68.416 32.583 C 68.338 32.400,68.194 32.195,68.095 32.128 C 67.797 31.923,59.812 32.016,59.250 32.230 M159.430 32.184 C 158.580 32.387,158.391 32.559,158.261 33.248 C 158.156 33.809,158.141 33.818,157.202 33.867 L 156.250 33.917 156.250 34.750 L 156.250 35.583 154.633 35.667 C 152.769 35.763,152.657 35.833,152.615 36.941 C 152.585 37.717,152.561 37.758,152.160 37.700 C 150.899 37.519,150.706 38.476,150.681 45.034 C 150.672 47.530,150.592 49.676,150.499 49.920 C 150.408 50.159,150.341 50.631,150.350 50.969 C 150.365 51.521,150.380 51.541,150.500 51.167 C 150.625 50.778,150.636 50.789,150.673 51.333 C 150.694 51.654,150.736 52.191,150.765 52.527 C 150.801 52.944,150.741 53.166,150.576 53.230 C 150.442 53.281,150.333 53.246,150.333 53.152 C 150.333 53.057,150.259 53.026,150.169 53.082 C 150.074 53.141,150.046 53.074,150.103 52.925 C 150.158 52.783,150.274 52.667,150.361 52.667 C 150.448 52.667,150.466 52.753,150.401 52.859 C 150.322 52.986,150.356 53.006,150.499 52.917 C 150.669 52.812,150.647 52.731,150.402 52.552 C 150.203 52.407,150.066 52.386,150.029 52.495 C 149.998 52.591,149.903 52.627,149.820 52.575 C 149.737 52.524,149.875 52.301,150.126 52.080 C 150.505 51.746,150.532 51.676,150.281 51.672 C 150.019 51.667,149.994 51.570,150.092 50.917 C 150.186 50.291,150.160 50.167,149.936 50.167 C 149.778 50.167,149.667 50.304,149.667 50.500 C 149.667 50.683,149.729 50.833,149.804 50.833 C 149.880 50.833,149.909 51.058,149.869 51.332 C 149.829 51.606,149.735 51.792,149.660 51.746 C 149.584 51.699,149.556 51.480,149.596 51.258 C 149.636 51.036,149.582 50.801,149.476 50.735 C 149.363 50.665,149.327 50.687,149.389 50.789 C 149.448 50.884,149.339 51.003,149.146 51.054 C 148.807 51.142,148.799 51.210,148.905 53.031 C 149.084 56.132,149.443 57.167,150.341 57.167 C 150.644 57.167,150.733 57.413,150.872 58.650 C 150.896 58.869,151.056 59.132,151.227 59.233 C 151.720 59.524,152.500 60.339,152.500 60.563 C 152.500 60.949,152.902 61.167,153.617 61.167 C 154.333 61.167,154.333 61.167,154.336 61.792 C 154.340 62.843,154.457 62.910,156.372 62.972 L 158.089 63.028 158.027 63.684 C 157.912 64.893,157.496 64.833,166.072 64.833 C 174.626 64.833,174.292 64.878,174.450 63.702 L 174.544 63.000 175.844 63.000 C 177.707 63.000,178.000 62.856,178.000 61.940 L 178.000 61.205 178.736 61.094 C 179.868 60.924,179.864 60.938,179.804 57.052 C 179.730 52.272,179.830 52.427,176.613 52.122 C 173.025 51.783,171.000 52.249,171.000 53.416 C 171.000 53.754,170.895 53.807,170.042 53.904 C 167.980 54.139,167.612 54.222,167.317 54.516 C 167.149 54.684,166.969 54.751,166.916 54.665 C 166.779 54.445,165.593 54.137,164.417 54.018 L 163.417 53.917 163.320 53.194 C 163.211 52.379,162.988 52.173,162.208 52.169 C 161.493 52.166,161.416 51.328,162.083 50.804 C 162.487 50.486,162.500 50.413,162.500 48.434 C 162.500 46.471,162.484 46.376,162.083 46.000 C 161.387 45.346,161.504 44.667,162.313 44.667 C 163.070 44.667,163.286 44.461,163.361 43.666 C 163.414 43.112,163.454 43.078,164.167 42.985 C 165.367 42.827,166.412 42.281,166.659 41.684 C 166.944 40.996,167.102 41.032,167.227 41.812 C 167.370 42.702,167.549 42.800,169.281 42.931 L 170.798 43.045 170.900 43.684 C 170.962 44.069,171.130 44.391,171.324 44.495 C 171.872 44.788,177.749 44.720,178.000 44.417 C 178.114 44.279,178.298 44.167,178.408 44.167 C 178.670 44.167,179.193 43.564,179.563 42.833 C 179.821 42.325,179.852 41.862,179.805 39.216 C 179.744 35.873,179.739 35.856,178.687 35.715 C 178.128 35.640,178.000 35.557,177.998 35.270 C 177.990 34.121,177.502 33.833,175.558 33.833 L 174.333 33.833 174.333 33.282 C 174.333 32.029,174.679 32.087,166.972 32.056 C 163.163 32.040,159.791 32.098,159.430 32.184 M190.467 32.158 C 189.657 32.316,189.391 32.557,189.260 33.256 L 189.152 33.833 187.934 33.833 C 186.207 33.833,185.702 34.042,185.575 34.806 C 185.422 35.731,185.369 35.833,185.042 35.833 C 184.236 35.833,183.500 37.218,183.500 38.734 L 183.500 39.333 182.679 39.333 L 181.857 39.333 181.741 40.267 C 181.677 40.780,181.673 41.673,181.732 42.252 C 181.829 43.203,181.811 43.297,181.545 43.233 C 180.303 42.936,180.029 43.943,180.013 48.864 C 179.998 53.440,180.028 53.583,181.030 53.733 L 181.750 53.841 181.762 56.360 C 181.776 59.164,181.843 59.333,182.931 59.333 C 183.523 59.333,183.667 59.545,183.667 60.423 C 183.667 61.009,183.715 61.035,185.167 61.221 C 185.337 61.243,185.434 61.489,185.470 61.999 C 185.538 62.960,185.611 62.994,187.542 62.997 L 189.167 63.000 189.167 63.744 C 189.167 64.876,188.796 64.836,198.864 64.814 C 209.404 64.791,208.888 64.841,209.000 63.832 L 209.083 63.083 210.583 62.954 C 211.772 62.852,212.141 62.756,212.361 62.495 C 212.987 61.750,213.002 54.928,212.379 54.305 C 211.797 53.722,202.883 53.717,202.301 54.299 C 202.200 54.400,202.071 54.768,202.014 55.117 L 201.911 55.750 199.122 55.796 L 196.333 55.841 196.333 55.348 C 196.333 54.317,196.082 54.000,195.264 54.000 C 194.483 54.000,194.356 53.901,194.083 53.083 C 193.954 52.697,193.775 52.548,193.292 52.429 C 191.815 52.064,193.200 52.000,202.550 52.000 C 213.433 52.000,212.833 52.064,212.833 50.905 C 212.833 50.217,212.839 50.210,213.524 50.118 C 214.384 50.003,214.450 49.893,214.595 48.344 C 214.915 44.935,214.312 42.002,213.235 41.731 C 212.867 41.639,212.832 41.545,212.821 40.607 C 212.791 38.105,212.631 37.675,211.680 37.547 C 211.068 37.465,211.000 37.410,211.000 36.989 C 211.000 35.993,210.741 35.667,209.951 35.667 L 209.227 35.667 209.072 34.792 L 208.917 33.917 207.226 33.869 L 205.536 33.822 205.418 33.036 C 205.354 32.604,205.214 32.195,205.109 32.128 C 204.862 31.971,191.286 31.999,190.467 32.158 M218.623 32.208 C 218.458 32.334,218.329 32.714,218.299 33.161 C 218.253 33.858,218.215 33.912,217.690 34.018 C 216.498 34.260,216.583 33.135,216.583 48.631 L 216.583 62.583 216.965 63.298 C 217.175 63.692,217.550 64.103,217.798 64.212 C 218.047 64.321,218.304 64.486,218.369 64.580 C 218.560 64.853,228.592 64.809,228.867 64.533 C 229.038 64.362,229.093 62.280,229.129 54.492 L 229.174 44.667 230.087 44.667 L 231.000 44.667 231.000 43.841 L 231.000 43.016 235.423 42.966 C 240.436 42.910,240.158 42.996,240.167 41.500 C 240.170 40.922,240.225 40.667,240.315 40.810 C 240.394 40.934,240.806 41.075,241.229 41.123 L 242.000 41.210 242.022 41.897 C 242.035 42.274,242.028 42.898,242.008 43.282 C 241.945 44.489,242.074 44.667,243.011 44.667 C 243.795 44.667,243.834 44.688,243.841 45.125 C 243.922 50.313,243.885 50.167,245.115 50.167 C 245.572 50.167,245.669 50.231,245.682 50.542 C 245.690 50.748,245.714 51.462,245.736 52.129 C 245.781 53.519,245.872 53.659,246.813 53.785 L 247.500 53.877 247.534 54.730 C 247.552 55.199,247.551 55.846,247.530 56.167 C 247.456 57.329,247.580 57.500,248.503 57.500 L 249.333 57.500 249.361 58.792 C 249.377 59.502,249.395 60.308,249.403 60.583 C 249.414 60.969,249.502 61.095,249.790 61.136 C 250.929 61.298,251.643 63.000,250.572 63.000 C 249.532 63.000,249.297 63.236,249.361 64.215 C 249.416 65.060,249.410 65.072,248.852 65.232 C 247.771 65.543,247.523 66.514,247.526 70.435 C 247.529 74.083,247.502 73.993,248.607 73.997 C 249.314 74.000,249.500 74.175,249.500 74.838 C 249.500 75.477,250.114 75.667,252.192 75.667 C 254.395 75.667,254.667 75.547,254.667 74.571 L 254.667 74.000 256.336 74.000 C 257.254 74.000,258.135 73.925,258.294 73.833 C 258.453 73.742,258.794 73.592,259.051 73.501 C 259.806 73.232,260.219 72.090,260.302 70.042 L 260.371 68.333 261.013 68.333 C 261.838 68.333,261.980 68.069,262.114 66.293 C 262.224 64.832,262.315 64.673,263.046 64.669 C 263.703 64.666,263.852 64.154,263.958 61.542 L 264.047 59.333 264.575 59.333 C 265.544 59.333,265.701 59.069,265.794 57.278 C 265.879 55.669,265.879 55.667,266.319 55.667 C 267.295 55.667,267.500 55.306,267.500 53.589 L 267.500 52.029 268.157 51.918 C 269.174 51.747,269.239 51.574,269.309 48.893 L 269.370 46.500 270.007 46.500 C 271.220 46.500,271.175 46.796,271.127 39.028 L 271.083 32.083 267.667 32.038 C 265.059 32.004,264.211 32.043,264.081 32.205 C 263.988 32.321,263.687 32.532,263.414 32.673 C 263.140 32.814,262.819 33.132,262.699 33.381 C 262.580 33.630,262.411 33.833,262.324 33.833 C 262.238 33.833,262.167 34.282,262.167 34.831 C 262.167 35.811,262.156 35.833,261.593 36.068 C 260.670 36.454,260.333 37.356,260.333 39.448 L 260.333 41.167 259.679 41.167 C 258.642 41.167,258.500 41.429,258.500 43.345 C 258.500 44.681,258.453 45.000,258.258 45.000 C 257.671 45.000,257.170 45.407,256.945 46.066 L 256.712 46.750 256.586 45.250 C 256.431 43.408,256.327 43.196,255.515 43.066 L 254.873 42.964 254.754 41.442 C 254.638 39.948,254.468 39.333,254.174 39.333 C 253.469 39.333,252.983 38.281,252.853 36.471 C 252.708 34.464,252.582 34.209,251.643 34.018 C 251.137 33.914,251.074 33.837,250.989 33.205 C 250.834 32.050,250.633 32.009,245.139 32.004 C 240.586 32.000,240.333 32.027,240.333 32.518 C 240.333 32.691,240.258 32.833,240.167 32.833 C 240.075 32.833,240.000 32.719,240.000 32.579 C 240.000 32.057,239.160 31.987,233.486 32.035 C 227.311 32.088,227.642 32.028,227.487 33.132 L 227.378 33.917 227.356 33.059 C 227.340 32.446,227.258 32.174,227.070 32.101 C 226.527 31.893,218.911 31.990,218.623 32.208 M80.386 33.958 C 80.121 34.153,80.122 34.167,80.399 34.167 C 80.563 34.167,80.662 34.259,80.621 34.375 C 80.581 34.490,80.422 34.572,80.268 34.559 C 80.047 34.540,80.029 34.584,80.181 34.768 C 80.287 34.895,80.346 35.006,80.312 35.012 C 79.885 35.098,79.463 35.126,79.625 35.059 C 79.740 35.011,79.833 34.899,79.833 34.810 C 79.833 34.720,79.766 34.688,79.684 34.739 C 79.603 34.790,79.475 34.625,79.400 34.374 C 79.178 33.621,79.197 33.167,79.451 33.167 C 79.589 33.167,79.636 33.086,79.565 32.970 C 79.498 32.863,79.720 32.994,80.057 33.262 C 80.611 33.703,80.643 33.770,80.386 33.958 M150.109 33.959 C 150.061 34.036,150.167 34.191,150.344 34.301 C 150.522 34.412,150.667 34.436,150.667 34.355 C 150.667 34.126,150.207 33.800,150.109 33.959 M84.029 34.458 C 83.628 34.802,83.126 35.955,83.324 36.078 C 83.400 36.125,83.555 36.051,83.668 35.915 C 83.781 35.778,84.127 35.667,84.437 35.667 C 84.993 35.667,85.000 35.658,85.000 34.917 C 85.000 34.072,84.666 33.914,84.029 34.458 M30.724 39.499 C 30.228 39.699,30.186 40.066,30.192 44.164 C 30.198 48.610,30.062 48.333,32.243 48.333 L 33.974 48.333 34.080 48.816 C 34.297 49.805,34.631 49.922,37.061 49.864 C 39.474 49.806,39.913 49.677,40.414 48.881 C 41.069 47.839,41.167 48.123,41.167 51.076 L 41.167 53.818 40.625 53.901 C 38.976 54.153,30.489 54.036,30.204 53.758 C 30.178 53.733,30.101 53.384,30.033 52.981 L 29.909 52.250 29.080 52.167 C 28.370 52.095,28.242 52.028,28.195 51.699 C 28.150 51.375,28.101 51.347,27.887 51.525 C 27.747 51.641,27.547 51.752,27.442 51.771 C 27.336 51.791,27.087 51.836,26.887 51.870 C 26.687 51.905,26.387 52.090,26.220 52.281 C 25.627 52.961,24.167 53.089,24.167 52.460 C 24.167 52.391,23.916 51.978,23.609 51.542 C 23.302 51.106,23.010 50.633,22.960 50.491 C 22.910 50.348,22.542 50.129,22.143 50.004 C 21.743 49.878,21.351 49.719,21.271 49.650 C 21.126 49.526,20.579 49.673,19.897 50.020 L 19.543 50.200 20.043 51.201 C 20.616 52.346,20.609 53.221,20.010 55.410 C 19.834 56.055,19.647 56.921,19.594 57.333 C 19.430 58.629,19.345 58.911,19.053 59.125 C 18.897 59.240,18.859 59.333,18.968 59.333 C 19.091 59.333,19.167 59.607,19.167 60.050 C 19.167 60.945,19.383 61.167,20.255 61.167 C 20.944 61.167,20.944 61.167,21.097 61.952 C 21.280 62.892,21.437 62.959,23.508 62.983 L 24.933 63.000 25.136 63.562 C 25.590 64.815,25.749 64.833,36.450 64.833 C 46.882 64.833,46.500 64.874,46.500 63.756 L 46.500 63.023 49.090 62.970 C 51.169 62.927,51.711 62.867,51.837 62.667 C 52.087 62.270,52.051 39.784,51.800 39.533 C 51.560 39.294,31.315 39.261,30.724 39.499 M198.526 41.828 C 198.731 42.316,198.925 42.512,199.276 42.588 C 200.628 42.880,200.243 42.977,197.750 42.974 C 195.842 42.971,195.235 42.926,195.615 42.816 C 196.084 42.680,196.160 42.574,196.259 41.914 L 196.371 41.167 197.311 41.168 C 198.246 41.170,198.251 41.173,198.526 41.828 M83.500 50.000 C 83.637 50.089,83.862 50.162,84.000 50.162 C 84.222 50.162,84.222 50.144,84.000 50.000 C 83.862 49.911,83.637 49.838,83.500 49.838 C 83.278 49.838,83.278 49.856,83.500 50.000 M153.767 59.693 C 153.464 60.125,153.408 59.983,153.680 59.475 C 153.779 59.290,153.899 59.177,153.947 59.225 C 153.995 59.273,153.914 59.483,153.767 59.693 M144.680 59.715 C 144.600 59.925,144.415 60.196,144.269 60.317 C 144.123 60.439,144.040 60.597,144.085 60.670 C 144.130 60.743,144.025 60.765,143.852 60.720 C 143.679 60.675,143.487 60.719,143.426 60.819 C 143.255 61.096,144.035 61.040,144.456 60.745 C 144.688 60.583,144.782 60.392,144.715 60.218 C 144.645 60.036,144.675 59.985,144.804 60.065 C 144.935 60.146,144.986 60.046,144.963 59.759 C 144.919 59.234,144.866 59.226,144.680 59.715 M156.270 61.365 C 156.337 61.474,156.304 61.593,156.196 61.629 C 156.088 61.665,156.000 61.768,156.000 61.857 C 156.000 61.946,156.087 61.966,156.192 61.901 C 156.313 61.826,156.340 61.855,156.264 61.977 C 156.093 62.254,155.790 62.020,155.911 61.705 C 155.966 61.561,155.915 61.382,155.797 61.308 C 155.638 61.207,155.656 61.171,155.865 61.169 C 156.020 61.168,156.202 61.256,156.270 61.365 M139.424 67.282 C 139.362 67.528,139.155 67.866,138.963 68.032 C 138.729 68.235,138.692 68.333,138.849 68.331 C 139.282 68.326,139.511 68.060,139.611 67.445 C 139.726 66.737,139.590 66.619,139.424 67.282 M96.000 68.642 C 96.000 69.292,96.409 69.828,97.079 70.056 C 97.980 70.363,97.971 70.168,97.036 69.208 C 96.382 68.537,96.000 68.328,96.000 68.642 M137.592 69.820 C 137.532 69.916,137.244 70.071,136.950 70.163 L 136.417 70.332 136.995 70.246 C 137.586 70.159,137.971 69.916,137.797 69.742 C 137.744 69.688,137.651 69.723,137.592 69.820 M101.333 74.730 C 101.333 74.868,101.408 75.027,101.500 75.083 C 101.592 75.140,101.667 75.074,101.667 74.936 C 101.667 74.799,101.592 74.640,101.500 74.583 C 101.408 74.527,101.333 74.593,101.333 74.730 " stroke="none" fill="#b4dc33" fill-rule="evenodd"></path><path id="path2" d="M132.500 15.167 C 132.500 15.213,132.095 15.225,131.600 15.194 C 130.209 15.107,129.934 15.330,130.065 16.439 C 130.181 17.432,130.433 17.956,130.859 18.092 C 131.011 18.140,131.179 18.291,131.231 18.427 C 131.309 18.630,131.260 18.642,130.955 18.495 C 130.678 18.361,130.701 18.406,131.043 18.672 C 131.295 18.868,131.459 19.098,131.408 19.181 C 131.356 19.265,131.487 19.345,131.698 19.359 C 132.310 19.399,132.405 19.418,132.602 19.542 C 132.704 19.606,133.017 19.675,133.299 19.697 C 133.580 19.718,133.777 19.790,133.736 19.856 C 133.635 20.020,133.968 20.210,134.393 20.232 C 134.584 20.242,134.828 20.425,134.934 20.639 C 135.157 21.086,135.867 21.500,136.411 21.500 C 136.782 21.500,137.667 22.181,137.667 22.467 C 137.667 22.673,138.277 23.359,138.446 23.340 C 138.521 23.332,138.846 23.453,139.167 23.608 C 139.487 23.763,139.994 24.007,140.292 24.150 C 140.590 24.292,140.833 24.487,140.833 24.581 C 140.833 24.848,141.417 25.149,142.163 25.269 C 143.014 25.405,143.038 25.448,143.283 27.292 C 143.334 27.681,143.442 28.000,143.522 28.000 C 143.601 28.000,143.667 28.115,143.667 28.255 C 143.667 28.396,143.779 28.553,143.916 28.606 C 144.053 28.659,144.123 28.769,144.073 28.851 C 144.022 28.933,144.060 29.000,144.157 29.000 C 144.254 29.000,144.333 29.228,144.333 29.506 C 144.333 30.168,144.744 30.773,145.530 31.269 C 145.880 31.490,146.167 31.789,146.167 31.934 C 146.167 32.730,147.055 33.504,147.917 33.460 L 148.750 33.417 148.784 32.417 C 148.823 31.265,148.700 30.460,148.504 30.581 C 148.429 30.627,148.332 30.569,148.287 30.453 C 148.242 30.336,147.957 30.222,147.653 30.198 C 146.962 30.146,147.026 30.261,146.984 28.996 C 146.964 28.402,146.866 27.862,146.766 27.794 C 146.640 27.710,146.648 27.671,146.792 27.669 C 146.906 27.668,147.000 27.584,147.000 27.482 C 147.000 27.381,146.894 27.338,146.764 27.388 C 146.634 27.438,146.485 27.367,146.432 27.231 C 146.379 27.091,146.409 27.027,146.502 27.085 C 146.593 27.141,146.667 27.111,146.667 27.020 C 146.667 26.720,146.325 26.633,146.044 26.861 C 145.886 26.989,145.819 27.001,145.886 26.889 C 145.957 26.770,145.828 26.637,145.551 26.545 C 145.172 26.418,145.099 26.296,145.092 25.781 C 145.087 25.443,145.017 25.173,144.935 25.181 C 144.854 25.189,144.733 25.108,144.667 25.001 C 144.601 24.894,144.293 24.794,143.982 24.778 C 143.441 24.751,143.414 24.719,143.365 24.041 C 143.317 23.366,142.593 22.629,142.284 22.939 C 142.015 23.207,141.499 22.781,141.488 22.280 C 141.467 21.314,141.342 21.197,140.186 21.056 C 139.374 20.957,138.699 20.587,139.071 20.445 C 139.264 20.371,139.314 20.401,139.234 20.544 C 139.163 20.670,139.209 20.661,139.351 20.521 C 139.532 20.343,139.537 20.275,139.374 20.215 C 139.259 20.173,139.204 20.075,139.252 19.997 C 139.300 19.920,139.266 19.812,139.178 19.757 C 139.089 19.702,139.046 19.805,139.081 19.986 C 139.126 20.219,139.073 20.287,138.900 20.221 C 138.739 20.159,138.693 20.008,138.766 19.772 C 138.826 19.577,138.816 19.472,138.744 19.540 C 138.673 19.608,138.501 19.571,138.363 19.457 C 138.162 19.291,138.097 19.295,138.036 19.477 C 137.972 19.669,137.938 19.669,137.819 19.477 C 137.684 19.258,137.571 19.233,136.519 19.188 C 136.065 19.168,135.669 18.381,135.809 17.779 C 135.827 17.704,135.761 17.691,135.663 17.752 C 135.566 17.812,135.384 17.778,135.260 17.675 C 135.136 17.572,134.445 17.462,133.726 17.431 C 131.814 17.349,131.868 17.360,132.183 17.120 C 132.330 17.008,132.450 16.879,132.450 16.833 C 132.452 16.577,132.704 16.012,132.802 16.045 C 132.865 16.066,132.929 16.017,132.944 15.935 C 132.995 15.663,133.404 15.512,133.535 15.717 C 133.621 15.852,133.662 15.822,133.664 15.625 C 133.666 15.465,133.734 15.352,133.817 15.375 C 133.899 15.398,133.974 15.351,133.984 15.270 C 133.993 15.189,133.663 15.114,133.250 15.103 C 132.837 15.092,132.500 15.121,132.500 15.167 M104.081 15.663 C 104.167 15.803,104.055 15.836,103.689 15.778 C 103.208 15.702,103.180 15.726,103.233 16.178 C 103.264 16.442,103.224 16.619,103.144 16.570 C 103.065 16.520,103.000 16.322,103.000 16.129 C 103.000 15.936,102.949 15.829,102.886 15.891 C 102.824 15.954,102.777 16.295,102.782 16.648 C 102.791 17.286,102.787 17.290,102.366 17.071 C 102.132 16.950,101.861 16.900,101.764 16.960 C 101.666 17.020,101.773 17.121,102.002 17.185 C 102.460 17.312,102.559 17.291,100.917 17.417 C 100.293 17.465,99.833 17.653,99.833 17.861 C 99.833 17.948,99.927 17.963,100.042 17.895 C 100.201 17.799,100.206 17.826,100.064 18.010 C 99.387 18.882,100.393 19.820,101.733 19.565 C 101.926 19.529,102.363 19.454,102.704 19.398 C 103.250 19.310,103.338 19.229,103.431 18.731 C 103.495 18.391,103.743 17.992,104.053 17.731 C 104.618 17.256,104.854 16.605,104.398 16.780 C 104.157 16.873,104.157 16.835,104.401 16.364 C 104.657 15.868,104.653 15.838,104.314 15.656 C 104.045 15.512,103.989 15.514,104.081 15.663 M98.417 17.833 C 98.358 18.017,98.185 18.168,98.030 18.169 C 97.792 18.171,97.787 18.195,97.996 18.327 C 98.157 18.429,98.290 18.414,98.385 18.283 C 98.476 18.157,98.499 18.222,98.447 18.459 C 98.398 18.682,98.431 18.793,98.530 18.731 C 98.621 18.675,98.659 18.488,98.613 18.315 C 98.568 18.142,98.599 18.000,98.682 18.000 C 98.765 18.000,98.833 17.887,98.833 17.750 C 98.833 17.386,98.540 17.444,98.417 17.833 M96.101 19.597 C 96.046 19.742,96.007 20.023,96.017 20.222 C 96.032 20.554,96.044 20.550,96.167 20.167 C 96.240 19.938,96.308 19.841,96.317 19.953 C 96.326 20.069,96.448 20.112,96.600 20.054 C 96.747 19.998,96.933 20.056,97.014 20.184 C 97.125 20.360,97.162 20.326,97.164 20.048 C 97.168 19.466,96.294 19.095,96.101 19.597 M96.667 20.343 C 96.667 20.440,96.592 20.473,96.500 20.417 C 96.408 20.360,96.333 20.385,96.333 20.472 C 96.333 20.786,96.765 20.795,96.789 20.482 C 96.802 20.308,96.780 20.167,96.740 20.167 C 96.700 20.167,96.667 20.246,96.667 20.343 M95.881 20.852 C 95.730 21.004,94.450 21.197,93.458 21.218 C 93.189 21.223,93.000 21.320,93.000 21.452 C 93.000 21.576,92.888 21.720,92.750 21.773 C 92.612 21.826,92.500 22.046,92.500 22.262 C 92.500 22.655,92.120 22.964,91.486 23.086 C 90.998 23.180,90.704 23.549,90.577 24.226 C 90.514 24.560,90.386 24.833,90.291 24.833 C 90.197 24.833,90.013 24.965,89.881 25.125 C 89.750 25.285,89.686 25.328,89.740 25.220 C 89.794 25.112,89.763 24.976,89.669 24.918 C 89.576 24.861,89.500 24.939,89.500 25.091 C 89.500 25.267,89.410 25.335,89.255 25.275 C 88.957 25.161,88.753 25.431,89.015 25.593 C 89.148 25.675,89.150 25.741,89.022 25.820 C 88.870 25.914,88.732 26.338,88.679 26.875 C 88.672 26.944,88.531 27.000,88.365 27.000 C 87.924 27.000,87.290 27.647,87.414 27.970 C 87.471 28.119,87.463 28.185,87.396 28.118 C 87.251 27.973,86.839 29.088,86.836 29.637 C 86.834 29.850,86.720 30.137,86.582 30.275 C 86.443 30.414,86.369 30.589,86.416 30.665 C 86.463 30.742,86.370 30.779,86.209 30.748 C 86.048 30.717,85.856 30.686,85.782 30.679 C 85.708 30.672,85.703 30.573,85.772 30.458 C 85.855 30.320,85.801 30.329,85.611 30.482 C 85.454 30.610,85.364 30.753,85.411 30.800 C 85.458 30.847,85.419 30.980,85.324 31.095 C 85.204 31.240,85.204 31.337,85.325 31.412 C 85.580 31.569,85.540 31.838,85.277 31.737 C 85.098 31.669,85.049 32.071,85.030 33.753 C 85.004 36.117,84.995 36.151,84.440 36.045 C 84.220 36.003,83.990 36.047,83.931 36.144 C 83.871 36.240,83.700 36.272,83.549 36.214 C 83.345 36.135,83.302 36.178,83.380 36.382 C 83.438 36.533,83.406 36.705,83.308 36.765 C 83.190 36.838,83.207 36.923,83.357 37.018 C 83.524 37.124,83.528 37.162,83.375 37.164 C 83.090 37.168,83.083 40.183,83.367 40.467 C 83.522 40.622,83.522 40.667,83.367 40.667 C 83.257 40.667,83.167 40.746,83.167 40.843 C 83.167 40.940,83.254 40.965,83.362 40.899 C 83.499 40.814,83.519 40.873,83.429 41.098 C 83.358 41.273,83.271 42.886,83.234 44.681 L 83.167 47.946 83.796 48.608 C 84.142 48.971,84.555 49.319,84.713 49.379 C 84.996 49.488,85.110 50.584,85.016 52.310 C 84.996 52.674,85.090 52.954,85.284 53.114 C 85.449 53.248,85.490 53.311,85.375 53.253 C 85.035 53.080,85.138 53.402,85.494 53.624 C 85.777 53.801,85.809 53.789,85.730 53.539 C 85.654 53.296,85.681 53.301,85.903 53.574 C 86.048 53.751,86.167 53.807,86.167 53.697 C 86.167 53.543,86.239 53.542,86.481 53.693 C 86.736 53.853,86.808 54.147,86.867 55.266 C 86.906 56.023,87.027 56.748,87.135 56.878 C 87.242 57.008,87.290 57.154,87.241 57.204 C 87.192 57.253,87.492 57.344,87.909 57.407 C 88.637 57.516,88.667 57.542,88.667 58.087 C 88.667 58.814,89.200 59.333,89.948 59.333 L 90.500 59.333 90.502 60.375 C 90.506 62.539,90.701 62.902,91.846 62.869 C 92.236 62.858,92.291 62.938,92.430 63.720 L 92.583 64.583 93.291 64.635 C 94.042 64.689,94.099 64.769,94.204 65.917 C 94.246 66.373,94.322 66.431,95.083 66.583 C 95.902 66.747,95.918 66.762,95.975 67.417 C 96.052 68.298,96.246 68.500,97.020 68.500 C 97.549 68.500,97.670 68.561,97.688 68.833 C 97.699 69.017,97.727 69.242,97.750 69.333 C 97.773 69.425,97.801 69.762,97.813 70.083 C 97.828 70.519,97.907 70.667,98.125 70.669 C 98.290 70.671,98.344 70.725,98.250 70.794 C 98.000 70.978,97.956 71.620,98.184 71.761 C 98.319 71.844,98.345 71.808,98.263 71.651 C 98.197 71.522,98.260 71.562,98.404 71.740 C 98.595 71.975,98.667 71.998,98.669 71.824 C 98.671 71.636,98.701 71.630,98.808 71.797 C 98.882 71.915,99.050 71.972,99.180 71.924 C 99.585 71.775,99.886 72.109,99.869 72.688 C 99.851 73.313,100.084 73.688,100.412 73.562 C 100.534 73.515,100.687 73.565,100.754 73.673 C 100.844 73.819,100.910 73.813,101.011 73.648 C 101.117 73.478,101.227 73.518,101.494 73.827 C 101.720 74.087,101.778 74.265,101.661 74.337 C 101.538 74.413,101.573 74.642,101.772 75.058 C 101.972 75.478,102.104 75.603,102.195 75.459 C 102.299 75.296,102.329 75.300,102.331 75.476 C 102.333 75.636,102.460 75.671,102.764 75.595 C 103.043 75.525,103.157 75.548,103.087 75.660 C 103.029 75.755,103.060 75.833,103.157 75.833 C 103.254 75.833,103.333 76.054,103.333 76.323 C 103.333 76.593,103.410 76.861,103.503 76.918 C 103.596 76.976,103.629 77.093,103.575 77.179 C 103.459 77.368,103.724 77.478,104.493 77.559 C 105.082 77.621,105.341 78.017,105.240 78.701 C 105.187 79.061,105.686 79.521,105.790 79.210 C 105.842 79.055,105.925 79.067,106.114 79.257 C 106.254 79.397,106.495 79.471,106.649 79.422 C 106.867 79.353,106.938 79.452,106.970 79.868 C 106.992 80.163,107.102 80.462,107.214 80.533 C 107.370 80.632,107.367 80.662,107.202 80.664 C 107.026 80.666,107.026 80.709,107.202 80.899 C 107.320 81.027,107.473 81.098,107.542 81.056 C 107.610 81.014,107.760 81.039,107.875 81.111 C 107.990 81.182,108.158 81.250,108.250 81.262 C 108.342 81.273,108.510 81.294,108.625 81.308 C 108.744 81.322,108.833 81.567,108.833 81.877 C 108.833 82.255,108.947 82.495,109.208 82.668 C 109.583 82.915,109.676 82.945,110.190 82.981 C 110.379 82.994,110.509 83.239,110.607 83.766 C 110.752 84.542,111.648 85.156,112.292 84.920 C 112.429 84.870,112.500 85.013,112.500 85.339 L 112.500 85.833 114.500 85.833 L 116.500 85.833 116.500 85.405 C 116.500 85.169,116.406 84.888,116.292 84.780 C 116.108 84.607,115.936 84.551,115.250 84.443 C 114.976 84.400,114.334 83.604,114.334 83.308 C 114.333 83.157,114.127 82.958,113.875 82.868 C 113.388 82.692,112.681 82.094,112.646 81.827 C 112.634 81.739,112.616 81.589,112.604 81.494 C 112.574 81.243,112.141 81.005,111.707 81.003 C 111.500 81.001,111.200 80.842,111.040 80.648 C 110.881 80.455,110.656 80.197,110.542 80.077 C 110.427 79.956,110.333 79.778,110.333 79.681 C 110.333 79.584,110.077 79.397,109.763 79.266 C 109.449 79.135,109.066 78.835,108.911 78.599 C 108.757 78.363,108.563 78.211,108.482 78.261 C 108.400 78.312,108.333 78.274,108.333 78.177 C 108.333 77.970,107.729 77.333,107.533 77.333 C 107.332 77.333,106.333 76.263,106.333 76.048 C 106.333 75.945,106.274 75.836,106.201 75.806 C 106.000 75.721,105.389 74.636,105.278 74.167 C 105.220 73.922,104.981 73.663,104.698 73.539 C 104.407 73.411,104.065 73.034,103.834 72.585 C 103.561 72.053,103.301 71.793,102.913 71.666 C 102.421 71.503,101.839 71.039,101.870 70.833 C 101.923 70.479,101.571 70.024,101.100 69.840 C 100.699 69.683,100.446 69.420,100.226 68.935 C 100.055 68.558,99.675 68.103,99.376 67.918 C 99.079 67.734,98.788 67.396,98.729 67.167 C 98.566 66.526,97.854 65.667,97.488 65.667 C 97.290 65.667,97.078 65.484,96.955 65.208 C 96.643 64.511,95.984 63.833,95.617 63.833 C 95.251 63.833,94.624 63.205,94.763 62.978 C 94.813 62.899,94.789 62.833,94.710 62.833 C 94.631 62.833,94.472 62.571,94.356 62.250 C 94.240 61.929,94.056 61.666,93.948 61.666 C 93.683 61.664,93.062 60.731,92.781 59.913 C 92.603 59.393,92.401 59.176,91.844 58.909 C 91.454 58.721,91.142 58.515,91.151 58.451 C 91.159 58.386,91.158 58.277,91.147 58.208 C 91.137 58.140,91.139 57.967,91.152 57.825 C 91.182 57.502,90.514 56.859,90.077 56.791 C 89.389 56.684,89.241 56.377,89.049 54.667 C 88.969 53.953,88.582 53.263,88.345 53.410 C 87.995 53.626,87.500 52.091,87.500 50.790 C 87.500 50.242,86.960 49.455,86.541 49.393 C 86.160 49.337,85.677 48.667,85.658 48.167 C 85.642 47.743,85.622 47.615,85.331 46.011 C 85.241 45.513,85.161 44.388,85.155 43.511 C 85.149 42.634,85.083 41.767,85.009 41.583 C 84.936 41.400,84.946 41.113,85.033 40.946 C 85.585 39.886,85.912 36.746,85.519 36.273 C 85.273 35.977,85.125 34.455,85.357 34.598 C 85.463 34.664,85.454 34.558,85.332 34.331 C 85.144 33.979,85.159 33.960,85.560 34.036 C 85.810 34.084,85.949 34.052,85.892 33.959 C 85.837 33.872,85.942 33.880,86.124 33.977 C 86.712 34.292,87.490 33.089,87.498 31.852 C 87.500 31.444,87.909 31.015,88.304 31.005 C 88.747 30.995,88.969 30.532,89.039 29.475 C 89.078 28.880,89.161 28.311,89.223 28.211 C 89.285 28.110,89.241 27.990,89.126 27.942 C 88.997 27.889,89.057 27.813,89.282 27.744 L 89.647 27.633 89.216 27.233 C 88.979 27.013,88.867 26.833,88.967 26.833 C 89.068 26.833,89.224 26.965,89.315 27.125 C 89.470 27.398,89.498 27.396,89.751 27.083 C 89.941 26.848,90.047 26.811,90.108 26.958 C 90.228 27.248,90.500 27.219,90.500 26.917 C 90.500 26.694,90.819 26.579,91.229 26.654 C 91.309 26.668,91.327 26.556,91.269 26.405 C 91.193 26.209,91.233 26.156,91.406 26.223 C 91.576 26.288,91.619 26.237,91.550 26.056 C 91.472 25.853,91.527 25.819,91.797 25.905 C 92.061 25.989,92.232 25.897,92.504 25.530 C 92.707 25.256,93.143 24.960,93.503 24.852 C 94.001 24.703,94.164 24.557,94.245 24.188 C 94.328 23.810,94.490 23.673,95.050 23.505 C 96.375 23.108,96.500 23.004,96.500 22.294 C 96.500 21.937,96.418 21.491,96.317 21.302 C 96.183 21.053,96.183 20.991,96.317 21.073 C 96.418 21.135,96.500 21.115,96.500 21.028 C 96.500 20.792,96.065 20.669,95.881 20.852 M148.543 33.875 C 147.918 34.670,147.962 37.036,148.646 39.292 C 148.736 39.590,148.769 39.833,148.718 39.833 C 148.667 39.833,148.713 39.939,148.820 40.068 C 149.029 40.319,149.278 40.327,149.651 40.095 C 149.822 39.988,149.848 40.008,149.748 40.169 C 149.652 40.326,149.686 40.361,149.869 40.291 C 150.010 40.237,150.221 40.281,150.337 40.388 C 150.500 40.538,150.522 40.535,150.431 40.375 C 150.367 40.260,150.393 40.167,150.490 40.167 C 150.606 40.167,150.667 39.340,150.667 37.750 C 150.667 36.094,150.609 35.333,150.482 35.333 C 150.381 35.333,150.340 35.222,150.393 35.086 C 150.448 34.941,150.354 34.767,150.167 34.667 C 149.989 34.572,149.886 34.390,149.936 34.260 C 149.996 34.103,149.925 34.041,149.721 34.073 C 149.554 34.098,149.360 34.036,149.292 33.935 C 149.205 33.807,149.116 33.827,149.003 34.000 C 148.855 34.225,148.761 34.122,148.814 33.792 C 148.843 33.605,148.728 33.640,148.543 33.875 M14.981 34.049 C 14.068 34.744,13.858 41.683,14.711 42.971 C 14.964 43.354,15.244 43.667,15.334 43.667 C 15.423 43.667,15.646 43.795,15.829 43.951 C 16.309 44.363,17.440 44.661,18.529 44.664 C 19.349 44.666,19.539 44.731,19.961 45.153 C 20.469 45.661,21.535 45.740,22.417 45.334 C 22.600 45.250,23.060 45.102,23.439 45.006 C 24.139 44.828,24.337 44.566,24.590 43.482 L 24.691 43.048 23.637 43.255 C 23.058 43.369,22.289 43.589,21.929 43.745 C 21.525 43.920,21.078 43.991,20.762 43.931 C 20.480 43.877,19.688 43.760,19.002 43.670 C 17.237 43.440,16.930 43.268,16.058 42.021 L 15.286 40.917 15.374 37.375 C 15.422 35.427,15.414 33.836,15.356 33.839 C 15.298 33.842,15.129 33.936,14.981 34.049 M150.376 43.445 C 150.211 43.733,150.211 43.823,150.376 43.886 C 150.490 43.930,150.423 43.958,150.227 43.949 C 149.986 43.937,149.896 43.848,149.949 43.674 C 150.004 43.492,149.953 43.508,149.772 43.729 C 149.631 43.901,149.405 43.999,149.270 43.947 C 148.912 43.810,148.717 44.141,148.603 45.083 C 148.548 45.542,148.447 46.329,148.380 46.833 C 148.206 48.131,148.259 49.549,148.497 49.995 C 148.824 50.604,148.448 51.148,147.738 51.092 C 146.970 51.031,146.337 51.702,146.232 52.688 C 146.129 53.667,146.038 53.884,145.775 53.783 C 145.325 53.610,144.664 54.994,144.666 56.105 C 144.667 56.713,144.432 56.953,143.746 57.044 C 143.177 57.120,142.872 57.590,142.916 58.326 C 142.944 58.790,142.310 59.327,141.725 59.335 C 141.408 59.340,140.543 61.092,140.637 61.536 C 140.651 61.602,140.394 61.864,140.065 62.119 C 139.736 62.375,139.328 62.900,139.159 63.286 C 138.933 63.801,138.724 64.020,138.383 64.101 C 137.749 64.253,137.490 64.484,137.214 65.143 C 137.086 65.451,136.835 65.741,136.657 65.788 C 136.479 65.834,136.333 65.930,136.333 66.000 C 136.333 66.070,136.184 66.167,136.001 66.215 C 135.813 66.264,135.526 66.617,135.342 67.026 C 134.959 67.875,134.617 68.333,134.368 68.333 C 134.270 68.333,134.140 68.487,134.081 68.675 C 133.960 69.056,133.093 70.000,132.865 70.000 C 132.641 70.000,132.263 70.493,131.748 71.459 C 130.998 72.863,131.502 74.005,132.833 73.917 C 133.914 73.845,134.099 73.709,134.144 72.952 C 134.183 72.292,134.418 71.930,134.695 72.101 C 134.849 72.196,136.101 71.576,136.042 71.433 C 135.818 70.896,136.031 70.007,136.371 70.059 C 136.575 70.090,136.847 70.010,136.976 69.881 C 137.104 69.753,137.309 69.685,137.430 69.732 C 137.570 69.786,137.616 69.728,137.557 69.575 C 137.504 69.438,137.562 69.332,137.691 69.331 C 137.865 69.329,137.860 69.291,137.667 69.167 C 137.517 69.070,137.496 69.004,137.615 69.003 C 137.724 69.001,137.817 68.869,137.821 68.708 C 137.850 67.761,137.926 67.204,138.017 67.261 C 138.075 67.296,138.255 67.179,138.417 67.000 C 138.579 66.821,138.773 66.713,138.849 66.760 C 139.237 67.000,139.667 66.405,139.667 65.627 L 139.667 64.833 140.383 64.833 C 141.280 64.833,141.500 64.617,141.500 63.735 C 141.500 63.059,141.520 63.034,142.125 62.926 C 143.365 62.706,143.333 62.743,143.333 61.554 C 143.333 60.637,143.374 60.480,143.593 60.564 C 143.908 60.685,144.732 59.912,144.615 59.606 C 144.570 59.489,144.667 59.309,144.830 59.207 C 145.035 59.080,145.130 58.806,145.137 58.327 C 145.148 57.491,145.186 57.445,145.842 57.464 C 146.755 57.490,147.000 57.045,146.997 55.375 C 146.996 54.573,146.940 54.002,146.872 54.107 C 146.782 54.247,146.700 54.242,146.558 54.089 C 146.407 53.926,146.583 53.876,147.391 53.854 C 148.737 53.817,148.833 53.675,148.833 51.737 C 148.833 50.290,148.856 50.190,149.247 49.934 C 150.170 49.329,150.701 47.369,150.631 44.827 C 150.590 43.341,150.553 43.137,150.376 43.445 M18.500 46.614 C 17.493 46.716,17.167 46.832,17.167 47.087 C 17.167 47.222,17.104 47.333,17.027 47.333 C 16.846 47.333,16.500 48.093,16.500 48.490 C 16.500 48.660,16.727 49.042,17.005 49.339 C 17.592 49.967,17.672 51.139,17.477 56.274 C 17.384 58.729,17.464 59.592,17.758 59.298 C 17.863 59.192,17.945 58.702,18.363 55.667 C 18.585 54.057,18.607 51.692,18.418 49.789 C 18.296 48.564,18.310 48.476,18.673 48.161 C 19.640 47.323,23.583 49.019,24.400 50.625 C 24.659 51.134,25.092 51.310,25.750 51.171 C 25.842 51.152,26.160 51.135,26.458 51.135 C 26.756 51.134,27.001 51.047,27.003 50.942 C 27.004 50.835,27.078 50.861,27.169 51.000 C 27.304 51.205,27.359 51.210,27.477 51.027 C 27.556 50.905,27.668 50.811,27.727 50.819 C 28.068 50.865,28.126 50.774,28.115 50.208 C 28.101 49.489,27.917 49.306,27.352 49.448 C 27.049 49.524,26.983 49.495,27.084 49.332 C 27.181 49.175,27.154 49.155,26.984 49.261 C 26.676 49.453,26.125 49.536,26.224 49.376 C 26.267 49.306,25.941 49.276,25.500 49.307 C 24.840 49.353,24.681 49.309,24.598 49.057 C 24.260 48.029,22.751 47.217,20.487 46.843 C 19.990 46.760,19.471 46.662,19.333 46.624 C 19.196 46.586,18.821 46.582,18.500 46.614 M83.401 48.692 C 83.290 48.871,83.647 49.242,84.065 49.384 C 84.190 49.426,84.172 49.549,84.009 49.765 C 83.783 50.064,83.786 50.067,84.065 49.813 C 84.401 49.508,84.111 48.755,83.717 48.906 C 83.597 48.952,83.554 48.886,83.610 48.742 C 83.720 48.454,83.570 48.418,83.401 48.692 M144.392 59.921 C 144.338 60.061,144.134 60.259,143.939 60.361 C 143.612 60.530,143.616 60.510,143.987 60.106 C 144.452 59.601,144.528 59.566,144.392 59.921 M138.323 67.263 C 138.042 67.601,138.427 67.690,138.728 67.357 C 138.965 67.096,138.967 67.056,138.748 67.056 C 138.609 67.056,138.417 67.149,138.323 67.263 M126.719 76.986 C 126.669 77.177,126.562 77.333,126.481 77.333 C 126.181 77.333,126.317 79.100,126.639 79.391 C 126.806 79.543,126.980 79.631,127.025 79.587 C 127.069 79.542,127.395 79.469,127.749 79.423 C 128.296 79.353,129.003 79.000,128.596 79.000 C 128.521 79.000,128.554 78.886,128.670 78.746 C 128.786 78.606,128.837 78.449,128.784 78.396 C 128.731 78.342,128.756 78.119,128.840 77.900 C 129.009 77.455,128.788 76.667,128.494 76.667 C 128.394 76.667,128.369 76.759,128.439 76.875 C 128.533 77.031,128.504 77.039,128.324 76.906 C 127.844 76.552,126.819 76.603,126.719 76.986 M122.843 81.075 C 122.528 81.184,122.241 81.362,122.205 81.470 C 122.168 81.578,122.017 81.667,121.867 81.667 C 121.718 81.667,121.443 81.857,121.256 82.090 C 121.069 82.323,120.617 82.615,120.250 82.740 C 119.527 82.986,119.326 83.626,119.476 85.208 C 119.562 86.116,120.768 86.188,120.879 85.292 L 120.947 84.750 120.973 85.292 C 121.004 85.922,121.333 86.036,121.333 85.417 C 121.333 85.136,121.428 84.996,121.625 84.987 C 122.329 84.956,123.087 84.609,123.144 84.292 C 123.157 84.223,123.175 84.110,123.186 84.042 C 123.196 83.973,123.223 83.842,123.244 83.750 C 123.265 83.658,123.294 83.454,123.308 83.295 C 123.327 83.077,123.455 83.021,123.833 83.065 C 124.108 83.097,124.333 83.054,124.333 82.971 C 124.333 82.887,124.463 82.841,124.621 82.868 C 124.780 82.895,124.912 82.842,124.915 82.750 C 124.919 82.658,124.972 82.504,125.034 82.407 C 125.166 82.201,125.128 81.836,124.944 81.542 C 124.820 81.344,124.918 81.265,125.221 81.318 C 125.296 81.331,125.320 81.280,125.274 81.206 C 125.228 81.131,124.938 81.053,124.630 81.032 C 124.322 81.011,123.923 80.968,123.743 80.936 C 123.564 80.904,123.159 80.966,122.843 81.075 " stroke="none" fill="#fcfcd4" fill-rule="evenodd"></path><path id="path3" d="M133.189 15.653 C 133.070 15.727,132.959 15.854,132.944 15.935 C 132.929 16.017,132.871 16.068,132.815 16.049 C 132.759 16.031,132.627 16.205,132.521 16.437 L 132.329 16.859 132.844 16.492 C 133.509 16.019,133.820 15.263,133.189 15.653 M103.000 16.046 C 103.000 16.285,103.064 16.520,103.143 16.569 C 103.222 16.618,103.265 16.465,103.240 16.231 C 103.175 15.646,103.000 15.511,103.000 16.046 M102.500 16.157 C 102.500 16.254,102.444 16.315,102.375 16.292 C 102.306 16.269,102.238 16.317,102.223 16.398 C 102.207 16.479,102.106 16.601,101.997 16.669 C 101.866 16.750,101.963 16.874,102.284 17.034 C 102.768 17.275,102.769 17.274,102.806 16.734 C 102.826 16.436,102.765 16.144,102.671 16.086 C 102.577 16.028,102.500 16.060,102.500 16.157 M138.748 19.836 C 138.685 19.939,138.772 20.127,138.942 20.256 C 139.185 20.440,139.197 20.492,139.000 20.500 C 138.808 20.508,138.821 20.551,139.054 20.687 C 139.428 20.904,139.615 20.757,139.359 20.447 C 139.255 20.322,139.208 20.181,139.255 20.133 C 139.303 20.086,139.234 19.958,139.102 19.849 C 138.928 19.705,138.832 19.701,138.748 19.836 M37.208 22.948 C 37.369 22.990,37.631 22.990,37.792 22.948 C 37.952 22.906,37.821 22.872,37.500 22.872 C 37.179 22.872,37.048 22.906,37.208 22.948 M85.489 30.789 C 85.207 31.107,85.188 31.160,85.426 30.960 C 85.615 30.803,85.921 30.703,86.107 30.738 C 86.317 30.779,86.444 30.715,86.444 30.568 C 86.444 30.439,86.382 30.333,86.306 30.333 C 86.229 30.333,86.166 30.427,86.164 30.542 C 86.162 30.707,86.134 30.707,86.028 30.540 C 85.930 30.385,85.788 30.451,85.489 30.789 M79.565 32.970 C 79.636 33.086,79.589 33.167,79.451 33.167 C 79.197 33.167,79.178 33.621,79.400 34.374 C 79.475 34.625,79.603 34.790,79.684 34.739 C 79.766 34.688,79.833 34.720,79.833 34.810 C 79.833 34.899,79.740 35.011,79.625 35.059 C 79.463 35.126,79.885 35.098,80.312 35.012 C 80.346 35.006,80.287 34.895,80.181 34.768 C 80.029 34.584,80.047 34.540,80.268 34.559 C 80.422 34.572,80.581 34.490,80.621 34.375 C 80.662 34.259,80.563 34.167,80.399 34.167 C 80.122 34.167,80.121 34.153,80.386 33.958 C 80.643 33.770,80.611 33.703,80.057 33.262 C 79.720 32.994,79.498 32.863,79.565 32.970 M15.441 35.113 C 15.382 35.812,15.333 37.419,15.333 38.684 L 15.333 40.984 16.075 42.045 C 16.899 43.224,17.250 43.443,18.535 43.582 C 19.020 43.635,19.813 43.763,20.298 43.867 C 21.078 44.035,21.279 44.016,22.048 43.704 C 22.526 43.511,23.273 43.302,23.708 43.240 C 24.595 43.115,24.830 42.612,24.125 42.349 C 23.772 42.217,22.152 42.242,21.417 42.390 C 21.233 42.427,21.008 42.401,20.917 42.332 C 20.825 42.264,20.337 42.164,19.833 42.112 C 16.832 41.798,16.976 41.965,16.942 38.738 C 16.924 37.079,16.853 36.286,16.708 36.142 C 16.594 36.027,16.500 35.812,16.500 35.665 C 16.500 35.348,15.900 34.061,15.692 33.932 C 15.613 33.883,15.500 34.415,15.441 35.113 M149.927 34.316 C 149.870 34.408,149.983 34.568,150.177 34.672 C 150.478 34.833,150.521 34.818,150.473 34.569 C 150.407 34.228,150.076 34.075,149.927 34.316 M83.833 35.927 C 83.833 36.080,83.755 36.138,83.641 36.067 C 83.519 35.992,83.494 36.022,83.572 36.149 C 83.665 36.298,83.754 36.302,83.922 36.163 C 84.045 36.060,84.313 36.000,84.516 36.030 C 84.737 36.062,84.914 35.983,84.956 35.833 C 85.018 35.611,85.006 35.611,84.849 35.833 C 84.729 36.003,84.671 36.016,84.669 35.875 C 84.668 35.760,84.479 35.667,84.250 35.667 C 83.984 35.667,83.833 35.760,83.833 35.927 M150.472 47.520 C 150.300 48.459,149.702 49.636,149.247 49.934 C 148.772 50.245,148.684 51.002,149.083 51.333 C 149.234 51.459,149.333 51.472,149.333 51.368 C 149.333 51.272,149.240 51.157,149.125 51.110 C 149.004 51.062,149.043 51.021,149.218 51.013 C 149.402 51.005,149.473 50.925,149.401 50.808 C 149.327 50.688,149.355 50.660,149.476 50.735 C 149.582 50.801,149.636 51.036,149.596 51.258 C 149.556 51.480,149.584 51.699,149.660 51.746 C 149.735 51.792,149.829 51.606,149.869 51.332 C 149.909 51.058,149.880 50.833,149.804 50.833 C 149.729 50.833,149.667 50.683,149.667 50.500 C 149.667 50.304,149.778 50.167,149.936 50.167 C 150.160 50.167,150.186 50.291,150.092 50.917 C 149.994 51.570,150.019 51.667,150.281 51.672 C 150.532 51.676,150.505 51.746,150.126 52.080 C 149.875 52.301,149.737 52.524,149.820 52.575 C 149.903 52.627,149.998 52.591,150.029 52.495 C 150.066 52.386,150.203 52.407,150.402 52.552 C 150.647 52.731,150.669 52.812,150.499 52.917 C 150.356 53.006,150.322 52.986,150.401 52.859 C 150.466 52.753,150.448 52.667,150.361 52.667 C 150.274 52.667,150.158 52.783,150.103 52.925 C 150.046 53.074,150.074 53.141,150.169 53.082 C 150.259 53.026,150.333 53.057,150.333 53.152 C 150.333 53.246,150.442 53.281,150.576 53.230 C 150.741 53.166,150.801 52.944,150.765 52.527 C 150.736 52.191,150.694 51.654,150.673 51.333 C 150.636 50.789,150.625 50.778,150.500 51.167 C 150.379 51.545,150.365 51.528,150.350 50.983 C 150.341 50.653,150.412 50.158,150.508 49.883 C 150.604 49.607,150.660 48.827,150.633 48.149 C 150.593 47.155,150.562 47.033,150.472 47.520 M18.673 48.161 C 18.310 48.476,18.296 48.564,18.418 49.789 C 18.665 52.270,18.560 55.312,18.167 57.083 C 17.770 58.873,17.799 59.333,18.305 59.333 C 19.189 59.333,19.378 59.039,19.594 57.333 C 19.647 56.921,19.834 56.055,20.010 55.410 C 20.609 53.221,20.616 52.346,20.043 51.201 L 19.543 50.200 19.897 50.020 C 20.579 49.673,21.126 49.526,21.271 49.650 C 21.351 49.719,21.743 49.878,22.143 50.004 C 22.542 50.129,22.910 50.348,22.960 50.491 C 23.010 50.633,23.302 51.106,23.609 51.542 C 23.916 51.978,24.167 52.391,24.167 52.460 C 24.167 53.089,25.627 52.961,26.220 52.281 C 26.387 52.090,26.687 51.905,26.887 51.870 C 27.521 51.760,27.579 51.743,27.794 51.609 C 27.910 51.536,27.962 51.407,27.910 51.322 C 27.857 51.236,27.893 51.167,27.990 51.167 C 28.087 51.167,28.167 51.088,28.167 50.993 C 28.167 50.782,27.633 50.850,27.458 51.083 C 27.380 51.188,27.272 51.157,27.169 51.000 C 27.078 50.861,27.004 50.835,27.003 50.942 C 27.001 51.047,26.756 51.134,26.458 51.135 C 26.160 51.135,25.842 51.152,25.750 51.171 C 25.092 51.310,24.659 51.134,24.400 50.625 C 23.583 49.019,19.640 47.323,18.673 48.161 M83.273 48.416 C 83.325 48.553,83.435 48.623,83.517 48.573 C 83.600 48.522,83.667 48.555,83.667 48.647 C 83.667 48.739,83.599 48.856,83.516 48.907 C 83.058 49.190,84.008 50.167,84.742 50.167 C 85.109 50.167,85.066 49.515,84.689 49.370 C 84.517 49.304,84.173 49.006,83.924 48.708 C 83.450 48.142,83.109 47.989,83.273 48.416 M84.140 49.186 C 84.305 49.451,84.313 49.587,84.170 49.728 C 84.028 49.869,84.007 49.847,84.086 49.640 C 84.158 49.451,84.081 49.329,83.843 49.253 C 83.652 49.192,83.538 49.073,83.591 48.988 C 83.740 48.746,83.901 48.804,84.140 49.186 M197.717 55.791 C 198.523 55.821,199.798 55.821,200.550 55.791 C 201.302 55.760,200.642 55.735,199.083 55.735 C 197.525 55.735,196.910 55.760,197.717 55.791 M153.680 59.475 C 153.408 59.983,153.464 60.125,153.767 59.693 C 153.914 59.483,153.995 59.273,153.947 59.225 C 153.899 59.177,153.779 59.290,153.680 59.475 M143.872 60.172 C 143.573 60.444,143.369 60.667,143.420 60.667 C 143.623 60.667,144.311 60.132,144.397 59.907 C 144.519 59.589,144.505 59.596,143.872 60.172 M155.797 61.308 C 155.915 61.382,155.966 61.561,155.911 61.705 C 155.790 62.020,156.093 62.254,156.264 61.977 C 156.340 61.855,156.313 61.826,156.192 61.901 C 156.087 61.966,156.000 61.946,156.000 61.857 C 156.000 61.768,156.088 61.665,156.196 61.629 C 156.472 61.537,156.206 61.166,155.865 61.169 C 155.656 61.171,155.638 61.207,155.797 61.308 M139.243 66.678 C 139.182 66.776,139.035 66.819,138.915 66.773 C 138.796 66.727,138.568 66.832,138.410 67.007 C 138.252 67.182,138.075 67.296,138.017 67.261 C 137.960 67.225,137.908 67.452,137.903 67.765 C 137.892 68.421,138.110 68.484,138.860 68.042 C 139.227 67.826,139.337 67.654,139.285 67.380 C 139.246 67.177,139.270 67.044,139.338 67.087 C 139.406 67.129,139.501 67.014,139.549 66.831 C 139.640 66.482,139.430 66.376,139.243 66.678 M138.728 67.357 C 138.578 67.523,138.387 67.616,138.303 67.565 C 138.095 67.436,138.428 67.056,138.748 67.056 C 138.967 67.056,138.965 67.096,138.728 67.357 M96.645 68.794 C 96.806 69.094,97.253 69.523,97.626 69.735 C 97.774 69.819,97.814 69.742,97.763 69.468 C 97.724 69.257,97.686 68.952,97.679 68.792 C 97.670 68.571,97.523 68.500,97.077 68.500 C 96.567 68.500,96.509 68.539,96.645 68.794 M137.384 69.573 C 137.275 69.697,137.087 69.834,136.968 69.877 C 136.848 69.919,136.796 70.004,136.851 70.064 C 137.007 70.234,137.401 70.031,137.630 69.663 C 137.863 69.291,137.688 69.226,137.384 69.573 " stroke="none" fill="#bcdc54" fill-rule="evenodd"></path><path id="path4" d="" stroke="none" fill="#100ecec" fill-rule="evenodd"></path></g></svg>